u2194_ 700 - 30.ufo
<glyph name="dollar" format="1">
  <advance width="761"/>
  <unicode hex="0024"/>
  <outline>
    <contour>
      <point x="411" y="-1" type="curve" smooth="yes"/>
      <point x="411" y="694" type="line"/>
      <point x="447" y="754" type="line"/>
      <point x="662" y="576" type="line" smooth="yes"/>
      <point x="674" y="566"/>
      <point x="694" y="567"/>
      <point x="704" y="580" type="curve" smooth="yes"/>
      <point x="714" y="592"/>
      <point x="713" y="612"/>
      <point x="700" y="622" type="curve" smooth="yes"/>
      <point x="458" y="822" type="line" smooth="yes"/>
      <point x="443" y="834"/>
      <point x="423" y="831"/>
      <point x="413" y="814" type="curve" smooth="yes"/>
      <point x="409" y="808" type="line"/>
      <point x="405" y="820"/>
      <point x="394" y="829"/>
      <point x="381" y="829" type="curve" smooth="yes"/>
      <point x="365" y="829"/>
      <point x="351" y="815"/>
      <point x="351" y="799" type="curve" smooth="yes"/>
      <point x="351" y="711" type="line"/>
      <point x="54" y="214" type="line" smooth="yes"/>
      <point x="46" y="200"/>
      <point x="51" y="182"/>
      <point x="65" y="173" type="curve" smooth="yes"/>
      <point x="79" y="165"/>
      <point x="97" y="170"/>
      <point x="106" y="184" type="curve" smooth="yes"/>
      <point x="351" y="594" type="line"/>
      <point x="351" y="-1" type="line" smooth="yes"/>
      <point x="351" y="-17"/>
      <point x="365" y="-31"/>
      <point x="381" y="-31" type="curve" smooth="yes"/>
      <point x="397" y="-31"/>
      <point x="411" y="-17"/>
    </contour>
  </outline>
</glyph>
<glyph name="percent" format="1">
  <advance width="760"/>
  <unicode hex="0025"/>
  <outline>
    <contour>
      <point x="280" y="829" type="curve" smooth="yes"/>
      <point x="264" y="829"/>
      <point x="250" y="815"/>
      <point x="250" y="799" type="curve" smooth="yes"/>
      <point x="250" y="789" type="line" smooth="yes"/>
      <point x="250" y="773"/>
      <point x="264" y="759"/>
      <point x="280" y="759" type="curve" smooth="yes"/>
      <point x="296" y="759"/>
      <point x="310" y="773"/>
      <point x="310" y="789" type="curve" smooth="yes"/>
      <point x="310" y="799" type="line" smooth="yes"/>
      <point x="310" y="815"/>
      <point x="296" y="829"/>
    </contour>
    <contour>
      <point x="104" y="-19" type="curve" smooth="yes"/>
      <point x="704" y="781" type="line" smooth="yes"/>
      <point x="714" y="794"/>
      <point x="711" y="813"/>
      <point x="698" y="823" type="curve" smooth="yes"/>
      <point x="685" y="833"/>
      <point x="666" y="830"/>
      <point x="656" y="817" type="curve" smooth="yes"/>
      <point x="56" y="17" type="line" smooth="yes"/>
      <point x="46" y="4"/>
      <point x="49" y="-15"/>
      <point x="62" y="-25" type="curve" smooth="yes"/>
      <point x="75" y="-35"/>
      <point x="94" y="-32"/>
    </contour>
    <contour>
      <point x="480" y="-31" type="curve" smooth="yes"/>
      <point x="496" y="-31"/>
      <point x="510" y="-17"/>
      <point x="510" y="-1" type="curve" smooth="yes"/>
      <point x="510" y="9" type="line" smooth="yes"/>
      <point x="510" y="25"/>
      <point x="496" y="39"/>
      <point x="480" y="39" type="curve" smooth="yes"/>
      <point x="464" y="39"/>
      <point x="450" y="25"/>
      <point x="450" y="9" type="curve" smooth="yes"/>
      <point x="450" y="-1" type="line" smooth="yes"/>
      <point x="450" y="-17"/>
      <point x="464" y="-31"/>
    </contour>
  </outline>
</glyph>
<glyph name="comma" format="1">
  <advance width="260"/>
  <unicode hex="002C"/>
  <outline>
    <contour>
      <point x="193" y="169" type="curve" smooth="yes"/>
      <point x="179" y="176"/>
      <point x="160" y="170"/>
      <point x="153" y="155" type="curve" smooth="yes"/>
      <point x="53" y="-45" type="line" smooth="yes"/>
      <point x="46" y="-59"/>
      <point x="52" y="-78"/>
      <point x="67" y="-85" type="curve" smooth="yes"/>
      <point x="81" y="-92"/>
      <point x="100" y="-86"/>
      <point x="107" y="-71" type="curve" smooth="yes"/>
      <point x="207" y="129" type="line" smooth="yes"/>
      <point x="214" y="143"/>
      <point x="208" y="162"/>
    </contour>
  </outline>
</glyph>
<glyph name="slash" format="1">
  <advance width="760"/>
  <unicode hex="002F"/>
  <outline>
    <contour>
      <point x="104" y="-16" type="curve" smooth="yes"/>
      <point x="704" y="784" type="line" smooth="yes"/>
      <point x="714" y="797"/>
      <point x="711" y="816"/>
      <point x="698" y="826" type="curve" smooth="yes"/>
      <point x="685" y="836"/>
      <point x="666" y="833"/>
      <point x="656" y="820" type="curve" smooth="yes"/>
      <point x="56" y="20" type="line" smooth="yes"/>
      <point x="46" y="7"/>
      <point x="49" y="-12"/>
      <point x="62" y="-22" type="curve" smooth="yes"/>
      <point x="75" y="-32"/>
      <point x="94" y="-29"/>
    </contour>
  </outline>
</glyph>
<glyph name="zero" format="1">
  <advance width="762"/>
  <unicode hex="0030"/>
  <outline>
    <contour>
      <point x="304" y="-20" type="curve" smooth="yes"/>
      <point x="308" y="-16"/>
      <point x="310" y="-11"/>
      <point x="312" y="-7" type="curve"/>
      <point x="706" y="555" type="line" smooth="yes"/>
      <point x="725" y="583"/>
      <point x="695" y="615"/>
      <point x="666" y="598" type="curve" smooth="yes"/>
      <point x="489" y="492" type="line"/>
      <point x="659" y="716" type="line" smooth="yes"/>
      <point x="669" y="729"/>
      <point x="666" y="748"/>
      <point x="653" y="758" type="curve" smooth="yes"/>
      <point x="640" y="768"/>
      <point x="621" y="765"/>
      <point x="611" y="752" type="curve" smooth="yes"/>
      <point x="351" y="409" type="line"/>
      <point x="66" y="238" type="line" smooth="yes"/>
      <point x="48" y="227"/>
      <point x="45" y="206"/>
      <point x="59" y="191" type="curve" smooth="yes"/>
      <point x="130" y="118" type="line"/>
      <point x="97" y="74" type="line" smooth="yes"/>
      <point x="87" y="61"/>
      <point x="90" y="42"/>
      <point x="103" y="32" type="curve" smooth="yes"/>
      <point x="116" y="22"/>
      <point x="135" y="25"/>
      <point x="145" y="38" type="curve" smooth="yes"/>
      <point x="172" y="74" type="line"/>
      <point x="255" y="-12" type="line"/>
      <point x="257" y="-16"/>
      <point x="260" y="-20"/>
      <point x="264" y="-23" type="curve" smooth="yes"/>
      <point x="270" y="-27"/>
      <point x="277" y="-28"/>
      <point x="283" y="-28" type="curve"/>
      <point x="291" y="-28"/>
      <point x="298" y="-25"/>
    </contour>
    <contour>
      <point x="242" y="165" type="line"/>
      <point x="392" y="363" type="line"/>
      <point x="575" y="474" type="line"/>
      <point x="278" y="50" type="line"/>
      <point x="209" y="122" type="line"/>
    </contour>
    <contour>
      <point x="194" y="202" type="line"/>
      <point x="167" y="166" type="line"/>
      <point x="129" y="206" type="line"/>
      <point x="254" y="281" type="line"/>
    </contour>
  </outline>
</glyph>
<glyph name="one" format="1">
  <advance width="760"/>
  <unicode hex="0031"/>
  <outline>
    <contour>
      <point x="80" y="-29" type="curve" smooth="yes"/>
      <point x="680" y="-29" type="line" smooth="yes"/>
      <point x="696" y="-29"/>
      <point x="710" y="-15"/>
      <point x="710" y="1" type="curve" smooth="yes"/>
      <point x="710" y="17"/>
      <point x="696" y="31"/>
      <point x="680" y="31" type="curve" smooth="yes"/>
      <point x="220" y="31" type="line"/>
      <point x="409" y="662" type="line" smooth="yes"/>
      <point x="416" y="686"/>
      <point x="398" y="706"/>
      <point x="373" y="700" type="curve" smooth="yes"/>
      <point x="73" y="630" type="line" smooth="yes"/>
      <point x="57" y="627"/>
      <point x="47" y="610"/>
      <point x="51" y="594" type="curve" smooth="yes"/>
      <point x="54" y="578"/>
      <point x="71" y="568"/>
      <point x="87" y="572" type="curve" smooth="yes"/>
      <point x="336" y="630" type="line"/>
      <point x="158" y="31" type="line"/>
      <point x="80" y="31" type="line" smooth="yes"/>
      <point x="64" y="31"/>
      <point x="50" y="17"/>
      <point x="50" y="1" type="curve" smooth="yes"/>
      <point x="50" y="-15"/>
      <point x="64" y="-29"/>
    </contour>
  </outline>
</glyph>
<glyph name="two" format="1">
  <advance width="760"/>
  <unicode hex="0032"/>
  <outline>
    <contour>
      <point x="681" y="-30" type="curve" smooth="yes"/>
      <point x="697" y="-30"/>
      <point x="710" y="-15"/>
      <point x="710" y="1" type="curve" smooth="yes"/>
      <point x="690" y="692" type="line" smooth="yes"/>
      <point x="690" y="710"/>
      <point x="674" y="723"/>
      <point x="655" y="720" type="curve" smooth="yes"/>
      <point x="75" y="630" type="line" smooth="yes"/>
      <point x="59" y="627"/>
      <point x="48" y="611"/>
      <point x="50" y="595" type="curve" smooth="yes"/>
      <point x="53" y="579"/>
      <point x="69" y="568"/>
      <point x="85" y="570" type="curve" smooth="yes"/>
      <point x="631" y="656" type="line"/>
      <point x="650" y="-1" type="line" smooth="yes"/>
      <point x="650" y="-17"/>
      <point x="665" y="-30"/>
    </contour>
  </outline>
</glyph>
<glyph name="three" format="1">
  <advance width="761"/>
  <unicode hex="0033"/>
  <outline>
    <contour>
      <point x="82" y="171" type="curve" smooth="yes"/>
      <point x="681" y="214" type="line" smooth="yes"/>
      <point x="713" y="217"/>
      <point x="722" y="254"/>
      <point x="694" y="270" type="curve" smooth="yes"/>
      <point x="95" y="627" type="line" smooth="yes"/>
      <point x="81" y="635"/>
      <point x="63" y="630"/>
      <point x="54" y="616" type="curve" smooth="yes"/>
      <point x="46" y="602"/>
      <point x="51" y="584"/>
      <point x="65" y="575" type="curve" smooth="yes"/>
      <point x="582" y="267" type="line"/>
      <point x="78" y="231" type="line" smooth="yes"/>
      <point x="62" y="230"/>
      <point x="49" y="215"/>
      <point x="50" y="199" type="curve" smooth="yes"/>
      <point x="51" y="183"/>
      <point x="66" y="170"/>
    </contour>
  </outline>
</glyph>
<glyph name="four" format="1">
  <advance width="522"/>
  <unicode hex="0034"/>
  <outline>
    <contour>
      <point x="442" y="-29" type="curve" smooth="yes"/>
      <point x="458" y="-29"/>
      <point x="472" y="-15"/>
      <point x="472" y="1" type="curve" smooth="yes"/>
      <point x="472" y="600" type="line" smooth="yes"/>
      <point x="472" y="616"/>
      <point x="458" y="630"/>
      <point x="442" y="630" type="curve" smooth="yes"/>
      <point x="426" y="630"/>
      <point x="412" y="616"/>
      <point x="412" y="600" type="curve" smooth="yes"/>
      <point x="412" y="207" type="line"/>
      <point x="115" y="697" type="line"/>
      <point x="168" y="785" type="line" smooth="yes"/>
      <point x="176" y="798"/>
      <point x="171" y="817"/>
      <point x="157" y="826" type="curve" smooth="yes"/>
      <point x="144" y="834"/>
      <point x="125" y="829"/>
      <point x="116" y="815" type="curve" smooth="yes"/>
      <point x="54" y="712" type="line" smooth="yes"/>
      <point x="49" y="703"/>
      <point x="49" y="690"/>
      <point x="54" y="681" type="curve" smooth="yes"/>
      <point x="412" y="92" type="line"/>
      <point x="412" y="1" type="line" smooth="yes"/>
      <point x="412" y="-15"/>
      <point x="426" y="-29"/>
    </contour>
  </outline>
</glyph>
<glyph name="five" format="1">
  <advance width="760"/>
  <unicode hex="0035"/>
  <outline>
    <contour>
      <point x="106" y="186" type="curve" smooth="yes"/>
      <point x="457" y="771" type="line"/>
      <point x="680" y="771" type="line" smooth="yes"/>
      <point x="696" y="771"/>
      <point x="710" y="785"/>
      <point x="710" y="801" type="curve" smooth="yes"/>
      <point x="710" y="817"/>
      <point x="696" y="831"/>
      <point x="680" y="831" type="curve" smooth="yes"/>
      <point x="440" y="831" type="line" smooth="yes"/>
      <point x="431" y="831"/>
      <point x="419" y="824"/>
      <point x="414" y="816" type="curve" smooth="yes"/>
      <point x="54" y="216" type="line" smooth="yes"/>
      <point x="46" y="203"/>
      <point x="51" y="184"/>
      <point x="65" y="175" type="curve" smooth="yes"/>
      <point x="78" y="167"/>
      <point x="97" y="172"/>
    </contour>
  </outline>
</glyph>
<glyph name="six" format="1">
  <advance width="762"/>
  <unicode hex="0036"/>
  <outline>
    <contour>
      <point x="666" y="219" type="line"/>
      <point x="696" y="270" type="line"/>
      <point x="191" y="571" type="line"/>
      <point x="682" y="571" type="line" smooth="yes"/>
      <point x="698" y="571"/>
      <point x="712" y="585"/>
      <point x="712" y="601" type="curve" smooth="yes"/>
      <point x="712" y="617"/>
      <point x="698" y="631"/>
      <point x="682" y="631" type="curve" smooth="yes"/>
      <point x="82" y="631" type="line" smooth="yes"/>
      <point x="49" y="631"/>
      <point x="38" y="592"/>
      <point x="67" y="575" type="curve" smooth="yes"/>
    </contour>
  </outline>
</glyph>
<glyph name="seven" format="1">
  <advance width="743"/>
  <unicode hex="0037"/>
  <outline>
    <contour>
      <point x="305" y="-20" type="curve" smooth="yes"/>
      <point x="687" y="555" type="line" smooth="yes"/>
      <point x="699" y="572"/>
      <point x="692" y="593"/>
      <point x="673" y="600" type="curve" smooth="yes"/>
      <point x="91" y="825" type="line" smooth="yes"/>
      <point x="76" y="831"/>
      <point x="58" y="823"/>
      <point x="52" y="808" type="curve" smooth="yes"/>
      <point x="46" y="793"/>
      <point x="54" y="775"/>
      <point x="69" y="769" type="curve" smooth="yes"/>
      <point x="617" y="557" type="line"/>
      <point x="255" y="14" type="line" smooth="yes"/>
      <point x="246" y="0"/>
      <point x="250" y="-19"/>
      <point x="263" y="-28" type="curve" smooth="yes"/>
      <point x="277" y="-37"/>
      <point x="296" y="-33"/>
    </contour>
  </outline>
</glyph>
<glyph name="eight" format="1">
  <advance width="170"/>
  <unicode hex="0038"/>
  <outline>
    <contour>
      <point x="120" y="400" type="curve" smooth="yes"/>
      <point x="120" y="416"/>
      <point x="106" y="430"/>
      <point x="90" y="430" type="curve" smooth="yes"/>
      <point x="80" y="430" type="line" smooth="yes"/>
      <point x="64" y="430"/>
      <point x="50" y="416"/>
      <point x="50" y="400" type="curve" smooth="yes"/>
      <point x="50" y="384"/>
      <point x="64" y="370"/>
      <point x="80" y="370" type="curve" smooth="yes"/>
      <point x="90" y="370" type="line" smooth="yes"/>
      <point x="106" y="370"/>
      <point x="120" y="384"/>
    </contour>
  </outline>
</glyph>
<glyph name="nine" format="1">
  <advance width="762"/>
  <unicode hex="0039"/>
  <outline>
    <contour>
      <point x="80" y="170" type="curve" smooth="yes"/>
      <point x="680" y="170" type="line" smooth="yes"/>
      <point x="713" y="170"/>
      <point x="724" y="209"/>
      <point x="695" y="226" type="curve" smooth="yes"/>
      <point x="96" y="582" type="line"/>
      <point x="66" y="531" type="line"/>
      <point x="571" y="230" type="line"/>
      <point x="80" y="230" type="line" smooth="yes"/>
      <point x="64" y="230"/>
      <point x="50" y="216"/>
      <point x="50" y="200" type="curve" smooth="yes"/>
      <point x="50" y="184"/>
      <point x="64" y="170"/>
    </contour>
  </outline>
</glyph>
<glyph name="colon" format="1">
  <advance width="162"/>
  <unicode hex="003A"/>
  <outline>
    <contour>
      <point x="80" y="553" type="curve" smooth="yes"/>
      <point x="96" y="553"/>
      <point x="110" y="567"/>
      <point x="110" y="583" type="curve" smooth="yes"/>
      <point x="110" y="592" type="line" smooth="yes"/>
      <point x="110" y="608"/>
      <point x="96" y="622"/>
      <point x="80" y="622" type="curve" smooth="yes"/>
      <point x="64" y="622"/>
      <point x="50" y="608"/>
      <point x="50" y="592" type="curve" smooth="yes"/>
      <point x="50" y="583" type="line" smooth="yes"/>
      <point x="50" y="567"/>
      <point x="64" y="553"/>
    </contour>
    <contour>
      <point x="82" y="-29" type="curve" smooth="yes"/>
      <point x="98" y="-29"/>
      <point x="112" y="-15"/>
      <point x="112" y="1" type="curve" smooth="yes"/>
      <point x="112" y="5" type="line" smooth="yes"/>
      <point x="112" y="21"/>
      <point x="98" y="35"/>
      <point x="82" y="35" type="curve" smooth="yes"/>
      <point x="66" y="35"/>
      <point x="52" y="21"/>
      <point x="52" y="5" type="curve" smooth="yes"/>
      <point x="52" y="1" type="line" smooth="yes"/>
      <point x="52" y="-15"/>
      <point x="66" y="-29"/>
    </contour>
  </outline>
</glyph>
<glyph name="less" format="1">
  <advance width="160"/>
  <unicode hex="003C"/>
  <outline>
    <contour>
      <point x="80" y="533" type="curve" smooth="yes"/>
      <point x="64" y="533"/>
      <point x="50" y="519"/>
      <point x="50" y="503" type="curve" smooth="yes"/>
      <point x="50" y="103" type="line" smooth="yes"/>
      <point x="50" y="87"/>
      <point x="64" y="73"/>
      <point x="80" y="73" type="curve" smooth="yes"/>
      <point x="96" y="73"/>
      <point x="110" y="87"/>
      <point x="110" y="103" type="curve" smooth="yes"/>
      <point x="110" y="503" type="line" smooth="yes"/>
      <point x="110" y="519"/>
      <point x="96" y="533"/>
    </contour>
  </outline>
</glyph>
<glyph name="question" format="1">
  <advance width="359"/>
  <unicode hex="003F"/>
  <outline>
    <contour>
      <point x="292" y="173" type="curve" smooth="yes"/>
      <point x="307" y="180"/>
      <point x="313" y="199"/>
      <point x="306" y="213" type="curve" smooth="yes"/>
      <point x="107" y="612" type="line" smooth="yes"/>
      <point x="100" y="627"/>
      <point x="81" y="633"/>
      <point x="67" y="626" type="curve" smooth="yes"/>
      <point x="52" y="619"/>
      <point x="46" y="600"/>
      <point x="53" y="586" type="curve" smooth="yes"/>
      <point x="252" y="187" type="line" smooth="yes"/>
      <point x="259" y="172"/>
      <point x="278" y="166"/>
    </contour>
    <contour>
      <point x="279" y="-30" type="curve" smooth="yes"/>
      <point x="295" y="-30"/>
      <point x="309" y="-16"/>
      <point x="309" y="0" type="curve" smooth="yes"/>
      <point x="309" y="11" type="line" smooth="yes"/>
      <point x="309" y="27"/>
      <point x="295" y="41"/>
      <point x="279" y="41" type="curve" smooth="yes"/>
      <point x="263" y="41"/>
      <point x="249" y="27"/>
      <point x="249" y="11" type="curve" smooth="yes"/>
      <point x="249" y="0" type="line" smooth="yes"/>
      <point x="249" y="-16"/>
      <point x="263" y="-30"/>
    </contour>
  </outline>
</glyph>
<glyph name="at" format="1">
  <advance width="561"/>
  <unicode hex="0040"/>
  <outline>
    <contour>
      <point x="498" y="-67" type="curve" smooth="yes"/>
      <point x="511" y="-57"/>
      <point x="515" y="-38"/>
      <point x="506" y="-25" type="curve" smooth="yes"/>
      <point x="136" y="505" type="line"/>
      <point x="451" y="526" type="line"/>
      <point x="451" y="158" type="line" smooth="yes"/>
      <point x="451" y="142"/>
      <point x="465" y="128"/>
      <point x="481" y="128" type="curve" smooth="yes"/>
      <point x="497" y="128"/>
      <point x="511" y="142"/>
      <point x="511" y="158" type="curve" smooth="yes"/>
      <point x="511" y="558" type="line" smooth="yes"/>
      <point x="511" y="559" type="line"/>
      <point x="511" y="560" type="line" smooth="yes"/>
      <point x="511" y="561" type="line"/>
      <point x="511" y="560"/>
      <point x="511" y="562"/>
      <point x="510" y="563" type="curve"/>
      <point x="511" y="562"/>
      <point x="510" y="565"/>
      <point x="510" y="566" type="curve"/>
      <point x="509" y="567"/>
      <point x="509" y="568"/>
      <point x="509" y="568" type="curve"/>
      <point x="509" y="570"/>
      <point x="508" y="571"/>
      <point x="508" y="571" type="curve"/>
      <point x="507" y="572"/>
      <point x="507" y="573"/>
      <point x="507" y="573" type="curve"/>
      <point x="506" y="574"/>
      <point x="506" y="575"/>
      <point x="505" y="576" type="curve"/>
      <point x="504" y="576"/>
      <point x="504" y="577"/>
      <point x="503" y="577" type="curve"/>
      <point x="503" y="578"/>
      <point x="502" y="579"/>
      <point x="502" y="579" type="curve"/>
      <point x="501" y="580"/>
      <point x="500" y="581"/>
      <point x="500" y="581" type="curve"/>
      <point x="499" y="582"/>
      <point x="498" y="582"/>
      <point x="498" y="583" type="curve"/>
      <point x="497" y="583"/>
      <point x="496" y="584"/>
      <point x="495" y="584" type="curve"/>
      <point x="495" y="585"/>
      <point x="494" y="585"/>
      <point x="493" y="585" type="curve"/>
      <point x="492" y="586"/>
      <point x="491" y="586"/>
      <point x="490" y="586" type="curve"/>
      <point x="490" y="587"/>
      <point x="489" y="587"/>
      <point x="488" y="587" type="curve"/>
      <point x="482" y="588"/>
      <point x="484" y="588"/>
      <point x="485" y="588" type="curve"/>
      <point x="480" y="588"/>
      <point x="482" y="588"/>
      <point x="483" y="588" type="curve"/>
      <point x="481" y="588" type="line" smooth="yes"/>
      <point x="480" y="588" type="line"/>
      <point x="479" y="588" type="line" smooth="yes"/>
      <point x="79" y="562" type="line" smooth="yes"/>
      <point x="54" y="560"/>
      <point x="42" y="535"/>
      <point x="56" y="515" type="curve" smooth="yes"/>
      <point x="456" y="-59" type="line" smooth="yes"/>
      <point x="466" y="-72"/>
      <point x="485" y="-76"/>
    </contour>
  </outline>
</glyph>
<glyph name="C" format="1">
  <advance width="762"/>
  <unicode hex="0043"/>
  <outline>
    <contour>
      <point x="680" y="168" type="line" smooth="yes"/>
      <point x="696" y="167"/>
      <point x="711" y="179"/>
      <point x="712" y="196" type="curve" smooth="yes"/>
      <point x="713" y="212"/>
      <point x="701" y="227"/>
      <point x="684" y="228" type="curve" smooth="yes"/>
      <point x="179" y="268" type="line"/>
      <point x="697" y="572" type="line" smooth="yes"/>
      <point x="711" y="580"/>
      <point x="716" y="599"/>
      <point x="708" y="613" type="curve" smooth="yes"/>
      <point x="700" y="627"/>
      <point x="681" y="632"/>
      <point x="667" y="624" type="curve" smooth="yes"/>
      <point x="67" y="271" type="line" smooth="yes"/>
      <point x="39" y="255"/>
      <point x="48" y="218"/>
      <point x="80" y="216" type="curve" smooth="yes"/>
    </contour>
  </outline>
</glyph>
<glyph name="D" format="1">
  <advance width="760"/>
  <unicode hex="0044"/>
  <outline>
    <contour>
      <point x="95" y="213" type="curve" smooth="yes"/>
      <point x="695" y="563" type="line" smooth="yes"/>
      <point x="706" y="569"/>
      <point x="711" y="582"/>
      <point x="709" y="594" type="curve"/>
      <point x="711" y="601"/>
      <point x="709" y="608"/>
      <point x="706" y="614" type="curve" smooth="yes"/>
      <point x="697" y="628"/>
      <point x="678" y="633"/>
      <point x="665" y="625" type="curve" smooth="yes"/>
      <point x="65" y="265" type="line" smooth="yes"/>
      <point x="31" y="244"/>
      <point x="61" y="193"/>
    </contour>
  </outline>
</glyph>
<glyph name="E" format="1">
  <advance width="757"/>
  <unicode hex="0045"/>
  <outline>
    <contour>
      <point x="500" y="-21" type="curve" smooth="yes"/>
      <point x="698" y="175" type="line" smooth="yes"/>
      <point x="710" y="186"/>
      <point x="710" y="206"/>
      <point x="698" y="217" type="curve" smooth="yes"/>
      <point x="687" y="229"/>
      <point x="667" y="229"/>
      <point x="656" y="217" type="curve" smooth="yes"/>
      <point x="474" y="37" type="line"/>
      <point x="138" y="246" type="line"/>
      <point x="691" y="576" type="line" smooth="yes"/>
      <point x="705" y="585"/>
      <point x="710" y="603"/>
      <point x="702" y="617" type="curve" smooth="yes"/>
      <point x="693" y="631"/>
      <point x="675" y="636"/>
      <point x="661" y="628" type="curve" smooth="yes"/>
      <point x="65" y="272" type="line" smooth="yes"/>
      <point x="45" y="260"/>
      <point x="44" y="234"/>
      <point x="65" y="221" type="curve" smooth="yes"/>
      <point x="461" y="-25" type="line" smooth="yes"/>
      <point x="466" y="-29"/>
      <point x="472" y="-30"/>
      <point x="478" y="-30" type="curve"/>
      <point x="486" y="-30"/>
      <point x="494" y="-27"/>
    </contour>
  </outline>
</glyph>
<glyph name="F" format="1">
  <advance width="759"/>
  <unicode hex="0046"/>
  <outline>
    <contour>
      <point x="80" y="-30" type="curve" smooth="yes"/>
      <point x="96" y="-30"/>
      <point x="110" y="-17"/>
      <point x="110" y="0" type="curve" smooth="yes"/>
      <point x="113" y="229" type="line"/>
      <point x="694" y="576" type="line" smooth="yes"/>
      <point x="708" y="585"/>
      <point x="713" y="603"/>
      <point x="705" y="617" type="curve" smooth="yes"/>
      <point x="696" y="631"/>
      <point x="678" y="636"/>
      <point x="664" y="628" type="curve" smooth="yes"/>
      <point x="68" y="272" type="line" smooth="yes"/>
      <point x="60" y="267"/>
      <point x="54" y="256"/>
      <point x="54" y="246" type="curve" smooth="yes"/>
      <point x="50" y="0" type="line" smooth="yes"/>
      <point x="50" y="-16"/>
      <point x="63" y="-30"/>
    </contour>
  </outline>
</glyph>
<glyph name="G" format="1">
  <advance width="760"/>
  <unicode hex="0047"/>
  <outline>
    <contour>
      <point x="96" y="218" type="curve" smooth="yes"/>
      <point x="696" y="578" type="line" smooth="yes"/>
      <point x="710" y="587"/>
      <point x="715" y="606"/>
      <point x="707" y="619" type="curve" smooth="yes"/>
      <point x="698" y="633"/>
      <point x="679" y="638"/>
      <point x="666" y="630" type="curve" smooth="yes"/>
      <point x="162" y="327" type="line"/>
      <point x="307" y="589" type="line" smooth="yes"/>
      <point x="315" y="604"/>
      <point x="310" y="622"/>
      <point x="296" y="630" type="curve" smooth="yes"/>
      <point x="281" y="638"/>
      <point x="263" y="633"/>
      <point x="255" y="619" type="curve" smooth="yes"/>
      <point x="55" y="259" type="line" smooth="yes"/>
      <point x="39" y="230"/>
      <point x="68" y="201"/>
    </contour>
  </outline>
</glyph>
<glyph name="I" format="1">
  <advance width="760"/>
  <unicode hex="0049"/>
  <outline>
    <contour>
      <point x="107" y="-14" type="curve" smooth="yes"/>
      <point x="403" y="597" type="line"/>
      <point x="695" y="773" type="line" smooth="yes"/>
      <point x="709" y="782"/>
      <point x="714" y="801"/>
      <point x="706" y="814" type="curve" smooth="yes"/>
      <point x="697" y="828"/>
      <point x="678" y="833"/>
      <point x="665" y="825" type="curve" smooth="yes"/>
      <point x="364" y="644" type="line" smooth="yes"/>
      <point x="360" y="642"/>
      <point x="355" y="636"/>
      <point x="353" y="631" type="curve" smooth="yes"/>
      <point x="53" y="12" type="line" smooth="yes"/>
      <point x="46" y="-3"/>
      <point x="52" y="-21"/>
      <point x="67" y="-28" type="curve" smooth="yes"/>
      <point x="82" y="-35"/>
      <point x="100" y="-29"/>
    </contour>
  </outline>
</glyph>
<glyph name="J" format="1">
  <advance width="760"/>
  <unicode hex="004A"/>
  <outline>
    <contour>
      <point x="95" y="-27" type="curve" smooth="yes"/>
      <point x="395" y="144" type="line" smooth="yes"/>
      <point x="399" y="147"/>
      <point x="405" y="152"/>
      <point x="407" y="157" type="curve" smooth="yes"/>
      <point x="707" y="786" type="line" smooth="yes"/>
      <point x="714" y="801"/>
      <point x="708" y="819"/>
      <point x="693" y="826" type="curve" smooth="yes"/>
      <point x="678" y="833"/>
      <point x="660" y="827"/>
      <point x="653" y="812" type="curve" smooth="yes"/>
      <point x="357" y="191" type="line"/>
      <point x="65" y="25" type="line" smooth="yes"/>
      <point x="51" y="17"/>
      <point x="46" y="-2"/>
      <point x="54" y="-16" type="curve" smooth="yes"/>
      <point x="62" y="-30"/>
      <point x="81" y="-35"/>
    </contour>
  </outline>
</glyph>
<glyph name="K" format="1">
  <advance width="760"/>
  <unicode hex="004B"/>
  <outline>
    <contour>
      <point x="706" y="-11" type="curve" smooth="yes"/>
      <point x="714" y="2"/>
      <point x="709" y="21"/>
      <point x="695" y="30" type="curve" smooth="yes"/>
      <point x="110" y="381" type="line"/>
      <point x="110" y="804" type="line" smooth="yes"/>
      <point x="110" y="820"/>
      <point x="96" y="834"/>
      <point x="80" y="834" type="curve" smooth="yes"/>
      <point x="64" y="834"/>
      <point x="50" y="820"/>
      <point x="50" y="804" type="curve" smooth="yes"/>
      <point x="50" y="364" type="line" smooth="yes"/>
      <point x="50" y="355"/>
      <point x="57" y="343"/>
      <point x="65" y="338" type="curve" smooth="yes"/>
      <point x="665" y="-22" type="line" smooth="yes"/>
      <point x="678" y="-30"/>
      <point x="697" y="-25"/>
    </contour>
    <contour>
      <point x="467" y="377" type="curve" smooth="yes"/>
      <point x="481" y="370"/>
      <point x="500" y="376"/>
      <point x="507" y="391" type="curve" smooth="yes"/>
      <point x="707" y="791" type="line" smooth="yes"/>
      <point x="714" y="805"/>
      <point x="708" y="824"/>
      <point x="693" y="831" type="curve" smooth="yes"/>
      <point x="679" y="838"/>
      <point x="660" y="832"/>
      <point x="653" y="817" type="curve" smooth="yes"/>
      <point x="453" y="417" type="line" smooth="yes"/>
      <point x="446" y="403"/>
      <point x="452" y="384"/>
    </contour>
  </outline>
</glyph>
<glyph name="M" format="1">
  <advance width="760"/>
  <unicode hex="004D"/>
  <outline>
    <contour>
      <point x="680" y="-31" type="curve" smooth="yes"/>
      <point x="696" y="-31"/>
      <point x="710" y="-17"/>
      <point x="710" y="-1" type="curve" smooth="yes"/>
      <point x="710" y="699" type="line" smooth="yes"/>
      <point x="710" y="724"/>
      <point x="686" y="738"/>
      <point x="665" y="725" type="curve" smooth="yes"/>
      <point x="65" y="365" type="line" smooth="yes"/>
      <point x="57" y="360"/>
      <point x="50" y="348"/>
      <point x="50" y="339" type="curve"/>
      <point x="50" y="-1" type="line" smooth="yes"/>
      <point x="50" y="-17"/>
      <point x="64" y="-31"/>
      <point x="80" y="-31" type="curve" smooth="yes"/>
      <point x="96" y="-31"/>
      <point x="110" y="-17"/>
      <point x="110" y="-1" type="curve" smooth="yes"/>
      <point x="110" y="322" type="line"/>
      <point x="650" y="646" type="line"/>
      <point x="650" y="-1" type="line" smooth="yes"/>
      <point x="650" y="-17"/>
      <point x="664" y="-31"/>
    </contour>
  </outline>
</glyph>
<glyph name="O" format="1">
  <advance width="758"/>
  <unicode hex="004F"/>
  <outline>
    <contour>
      <point x="514" y="-9" type="curve" smooth="yes"/>
      <point x="707" y="658" type="line" smooth="yes"/>
      <point x="715" y="686"/>
      <point x="688" y="707"/>
      <point x="662" y="692" type="curve" smooth="yes"/>
      <point x="66" y="335" type="line" smooth="yes"/>
      <point x="46" y="323"/>
      <point x="45" y="299"/>
      <point x="62" y="285" type="curve" smooth="yes"/>
      <point x="456" y="-25" type="line" smooth="yes"/>
      <point x="463" y="-30"/>
      <point x="471" y="-32"/>
      <point x="479" y="-30" type="curve"/>
      <point x="492" y="-34"/>
      <point x="509" y="-25"/>
    </contour>
    <contour>
      <point x="467" y="44" type="line"/>
      <point x="134" y="306" type="line"/>
      <point x="628" y="601" type="line"/>
    </contour>
  </outline>
</glyph>
<glyph name="P" format="1">
  <advance width="760"/>
  <unicode hex="0050"/>
  <outline>
    <contour>
      <point x="80" y="-27" type="curve" smooth="yes"/>
      <point x="96" y="-27"/>
      <point x="110" y="-13"/>
      <point x="110" y="3" type="curve" smooth="yes"/>
      <point x="110" y="82" type="line"/>
      <point x="695" y="430" type="line" smooth="yes"/>
      <point x="729" y="450"/>
      <point x="698" y="502"/>
      <point x="664" y="482" type="curve" smooth="yes"/>
      <point x="65" y="129" type="line" smooth="yes"/>
      <point x="57" y="124"/>
      <point x="50" y="112"/>
      <point x="50" y="103" type="curve"/>
      <point x="50" y="3" type="line" smooth="yes"/>
      <point x="50" y="-13"/>
      <point x="64" y="-27"/>
    </contour>
  </outline>
</glyph>
<glyph name="Q" format="1">
  <advance width="758"/>
  <unicode hex="0051"/>
  <outline>
    <contour>
      <point x="511" y="-9" type="curve" smooth="yes"/>
      <point x="707" y="658" type="line" smooth="yes"/>
      <point x="715" y="686"/>
      <point x="688" y="707"/>
      <point x="662" y="692" type="curve" smooth="yes"/>
      <point x="66" y="335" type="line" smooth="yes"/>
      <point x="46" y="323"/>
      <point x="45" y="299"/>
      <point x="62" y="285" type="curve" smooth="yes"/>
      <point x="453" y="-25" type="line" smooth="yes"/>
      <point x="460" y="-30"/>
      <point x="468" y="-32"/>
      <point x="476" y="-30" type="curve"/>
      <point x="489" y="-34"/>
      <point x="506" y="-25"/>
    </contour>
    <contour>
      <point x="464" y="44" type="line"/>
      <point x="134" y="306" type="line"/>
      <point x="628" y="601" type="line"/>
    </contour>
  </outline>
</glyph>
<glyph name="R" format="1">
  <advance width="761"/>
  <unicode hex="0052"/>
  <outline>
    <contour>
      <point x="705" y="-22" type="curve" smooth="yes"/>
      <point x="715" y="-9"/>
      <point x="712" y="10"/>
      <point x="699" y="20" type="curve" smooth="yes"/>
      <point x="431" y="221" type="line"/>
      <point x="499" y="272" type="line" smooth="yes"/>
      <point x="512" y="282"/>
      <point x="515" y="301"/>
      <point x="505" y="314" type="curve" smooth="yes"/>
      <point x="495" y="327"/>
      <point x="476" y="330"/>
      <point x="463" y="320" type="curve" smooth="yes"/>
      <point x="381" y="258" type="line"/>
      <point x="298" y="320" type="line" smooth="yes"/>
      <point x="285" y="330"/>
      <point x="266" y="327"/>
      <point x="256" y="314" type="curve" smooth="yes"/>
      <point x="246" y="301"/>
      <point x="249" y="282"/>
      <point x="262" y="272" type="curve" smooth="yes"/>
      <point x="330" y="221" type="line"/>
      <point x="62" y="20" type="line" smooth="yes"/>
      <point x="49" y="10"/>
      <point x="46" y="-9"/>
      <point x="56" y="-22" type="curve" smooth="yes"/>
      <point x="66" y="-35"/>
      <point x="85" y="-38"/>
      <point x="98" y="-28" type="curve" smooth="yes"/>
      <point x="381" y="183" type="line"/>
      <point x="663" y="-28" type="line" smooth="yes"/>
      <point x="676" y="-38"/>
      <point x="695" y="-35"/>
    </contour>
  </outline>
</glyph>
<glyph name="S" format="1">
  <advance width="761"/>
  <unicode hex="0053"/>
  <outline>
    <contour>
      <point x="356" y="-11" type="curve" smooth="yes"/>
      <point x="707" y="589" type="line" smooth="yes"/>
      <point x="715" y="603"/>
      <point x="710" y="622"/>
      <point x="696" y="630" type="curve" smooth="yes"/>
      <point x="682" y="638"/>
      <point x="663" y="633"/>
      <point x="655" y="619" type="curve" smooth="yes"/>
      <point x="322" y="49" type="line"/>
      <point x="99" y="227" type="line" smooth="yes"/>
      <point x="86" y="238"/>
      <point x="67" y="235"/>
      <point x="57" y="223" type="curve" smooth="yes"/>
      <point x="46" y="210"/>
      <point x="49" y="191"/>
      <point x="61" y="181" type="curve" smooth="yes"/>
      <point x="312" y="-19" type="line" smooth="yes"/>
      <point x="326" y="-31"/>
      <point x="347" y="-27"/>
    </contour>
  </outline>
</glyph>
<glyph name="U" format="1">
  <advance width="759"/>
  <unicode hex="0055"/>
  <outline>
    <contour>
      <point x="698" y="99" type="curve" smooth="yes"/>
      <point x="709" y="799" type="line" smooth="yes"/>
      <point x="709" y="815"/>
      <point x="696" y="829"/>
      <point x="679" y="829" type="curve" smooth="yes"/>
      <point x="663" y="829"/>
      <point x="649" y="816"/>
      <point x="649" y="799" type="curve" smooth="yes"/>
      <point x="639" y="153" type="line"/>
      <point x="110" y="486" type="line"/>
      <point x="110" y="799" type="line" smooth="yes"/>
      <point x="110" y="815"/>
      <point x="96" y="829"/>
      <point x="80" y="829" type="curve" smooth="yes"/>
      <point x="64" y="829"/>
      <point x="50" y="815"/>
      <point x="50" y="799" type="curve" smooth="yes"/>
      <point x="50" y="469" type="line" smooth="yes"/>
      <point x="50" y="460"/>
      <point x="56" y="448"/>
      <point x="64" y="444" type="curve" smooth="yes"/>
      <point x="652" y="74" type="line" smooth="yes"/>
      <point x="674" y="61"/>
      <point x="698" y="74"/>
    </contour>
  </outline>
</glyph>
<glyph name="V" format="1">
  <advance width="760"/>
  <unicode hex="0056"/>
  <outline>
    <contour>
      <point x="279" y="105" type="curve" smooth="yes"/>
      <point x="704" y="652" type="line" smooth="yes"/>
      <point x="707" y="656"/>
      <point x="710" y="664"/>
      <point x="710" y="670" type="curve" smooth="yes"/>
      <point x="710" y="800" type="line" smooth="yes"/>
      <point x="710" y="816"/>
      <point x="696" y="830"/>
      <point x="680" y="830" type="curve" smooth="yes"/>
      <point x="664" y="830"/>
      <point x="650" y="816"/>
      <point x="650" y="800" type="curve" smooth="yes"/>
      <point x="650" y="680" type="line"/>
      <point x="269" y="190" type="line"/>
      <point x="109" y="808" type="line" smooth="yes"/>
      <point x="105" y="823"/>
      <point x="88" y="833"/>
      <point x="72" y="829" type="curve" smooth="yes"/>
      <point x="57" y="825"/>
      <point x="47" y="808"/>
      <point x="51" y="792" type="curve" smooth="yes"/>
      <point x="226" y="116" type="line" smooth="yes"/>
      <point x="233" y="89"/>
      <point x="262" y="83"/>
    </contour>
  </outline>
</glyph>
<glyph name="Y" format="1">
  <advance width="667"/>
  <unicode hex="0059"/>
  <outline>
    <contour>
      <point x="96" y="-25" type="curve" smooth="yes"/>
      <point x="602" y="289" type="line" smooth="yes"/>
      <point x="619" y="300"/>
      <point x="622" y="322"/>
      <point x="607" y="336" type="curve" smooth="yes"/>
      <point x="101" y="820" type="line" smooth="yes"/>
      <point x="89" y="831"/>
      <point x="70" y="830"/>
      <point x="58" y="819" type="curve" smooth="yes"/>
      <point x="47" y="807"/>
      <point x="48" y="788"/>
      <point x="59" y="776" type="curve" smooth="yes"/>
      <point x="537" y="320" type="line"/>
      <point x="64" y="27" type="line" smooth="yes"/>
      <point x="50" y="18"/>
      <point x="46" y="-1"/>
      <point x="54" y="-15" type="curve" smooth="yes"/>
      <point x="63" y="-29"/>
      <point x="82" y="-33"/>
    </contour>
  </outline>
</glyph>
<glyph name="Z" format="1">
  <advance width="760"/>
  <unicode hex="005A"/>
  <outline>
    <contour>
      <point x="710" y="-5" type="curve" smooth="yes"/>
      <point x="712" y="11"/>
      <point x="701" y="27"/>
      <point x="685" y="30" type="curve" smooth="yes"/>
      <point x="121" y="126" type="line"/>
      <point x="110" y="801" type="line" smooth="yes"/>
      <point x="110" y="817"/>
      <point x="96" y="830"/>
      <point x="79" y="830" type="curve" smooth="yes"/>
      <point x="63" y="830"/>
      <point x="50" y="816"/>
      <point x="50" y="799" type="curve" smooth="yes"/>
      <point x="62" y="100" type="line" smooth="yes"/>
      <point x="62" y="86"/>
      <point x="73" y="73"/>
      <point x="87" y="71" type="curve" smooth="yes"/>
      <point x="675" y="-30" type="line" smooth="yes"/>
      <point x="691" y="-32"/>
      <point x="707" y="-21"/>
    </contour>
  </outline>
</glyph>
<glyph name="bracketleft" format="1">
  <advance width="460"/>
  <unicode hex="005B"/>
  <outline>
    <contour>
      <point x="406" y="-15" type="curve" smooth="yes"/>
      <point x="414" y="-1"/>
      <point x="409" y="18"/>
      <point x="395" y="26" type="curve" smooth="yes"/>
      <point x="119" y="182" type="line"/>
      <point x="407" y="787" type="line" smooth="yes"/>
      <point x="414" y="802"/>
      <point x="408" y="820"/>
      <point x="393" y="827" type="curve" smooth="yes"/>
      <point x="378" y="834"/>
      <point x="360" y="828"/>
      <point x="353" y="813" type="curve" smooth="yes"/>
      <point x="53" y="183" type="line" smooth="yes"/>
      <point x="46" y="169"/>
      <point x="52" y="152"/>
      <point x="65" y="144" type="curve" smooth="yes"/>
      <point x="365" y="-26" type="line" smooth="yes"/>
      <point x="379" y="-34"/>
      <point x="398" y="-29"/>
    </contour>
  </outline>
</glyph>
<glyph name="backslash" format="1">
  <advance width="760"/>
  <unicode hex="005C"/>
  <outline>
    <contour>
      <point x="698" y="-25" type="curve" smooth="yes"/>
      <point x="711" y="-15"/>
      <point x="714" y="4"/>
      <point x="704" y="17" type="curve" smooth="yes"/>
      <point x="104" y="817" type="line" smooth="yes"/>
      <point x="94" y="830"/>
      <point x="75" y="833"/>
      <point x="62" y="823" type="curve" smooth="yes"/>
      <point x="49" y="813"/>
      <point x="46" y="794"/>
      <point x="56" y="781" type="curve" smooth="yes"/>
      <point x="656" y="-19" type="line" smooth="yes"/>
      <point x="666" y="-32"/>
      <point x="685" y="-35"/>
    </contour>
  </outline>
</glyph>
<glyph name="a" format="1">
  <advance width="160"/>
  <unicode hex="0061"/>
  <outline>
    <contour>
      <point x="80" y="376" type="curve" smooth="yes"/>
      <point x="64" y="376"/>
      <point x="50" y="362"/>
      <point x="50" y="346" type="curve" smooth="yes"/>
      <point x="50" y="-4" type="line" smooth="yes"/>
      <point x="50" y="-20"/>
      <point x="64" y="-34"/>
      <point x="80" y="-34" type="curve" smooth="yes"/>
      <point x="96" y="-34"/>
      <point x="110" y="-20"/>
      <point x="110" y="-4" type="curve" smooth="yes"/>
      <point x="110" y="346" type="line" smooth="yes"/>
      <point x="110" y="362"/>
      <point x="96" y="376"/>
    </contour>
  </outline>
</glyph>
<glyph name="b" format="1">
  <advance width="560"/>
  <unicode hex="0062"/>
  <outline>
    <contour>
      <point x="510" y="404" type="curve" smooth="yes"/>
      <point x="510" y="420"/>
      <point x="496" y="434"/>
      <point x="480" y="434" type="curve" smooth="yes"/>
      <point x="80" y="434" type="line" smooth="yes"/>
      <point x="64" y="434"/>
      <point x="50" y="420"/>
      <point x="50" y="404" type="curve" smooth="yes"/>
      <point x="50" y="388"/>
      <point x="64" y="374"/>
      <point x="80" y="374" type="curve" smooth="yes"/>
      <point x="480" y="374" type="line" smooth="yes"/>
      <point x="496" y="374"/>
      <point x="510" y="388"/>
    </contour>
  </outline>
</glyph>
<glyph name="f" format="1">
  <advance width="759"/>
  <unicode hex="0066"/>
  <outline>
    <contour>
      <point x="80" y="-26" type="curve" smooth="yes"/>
      <point x="96" y="-26"/>
      <point x="110" y="-13"/>
      <point x="110" y="4" type="curve" smooth="yes"/>
      <point x="114" y="235" type="line"/>
      <point x="348" y="374" type="line"/>
      <point x="480" y="374" type="line" smooth="yes"/>
      <point x="496" y="374"/>
      <point x="510" y="388"/>
      <point x="510" y="404" type="curve" smooth="yes"/>
      <point x="510" y="420"/>
      <point x="496" y="434"/>
      <point x="480" y="434" type="curve" smooth="yes"/>
      <point x="448" y="434" type="line"/>
      <point x="694" y="580" type="line" smooth="yes"/>
      <point x="708" y="588"/>
      <point x="713" y="607"/>
      <point x="705" y="621" type="curve" smooth="yes"/>
      <point x="697" y="635"/>
      <point x="678" y="640"/>
      <point x="664" y="632" type="curve" smooth="yes"/>
      <point x="331" y="434" type="line"/>
      <point x="280" y="434" type="line" smooth="yes"/>
      <point x="264" y="434"/>
      <point x="250" y="420"/>
      <point x="250" y="404" type="curve" smooth="yes"/>
      <point x="250" y="398"/>
      <point x="252" y="393"/>
      <point x="255" y="389" type="curve"/>
      <point x="69" y="278" type="line" smooth="yes"/>
      <point x="61" y="273"/>
      <point x="54" y="262"/>
      <point x="54" y="253" type="curve" smooth="yes"/>
      <point x="50" y="4" type="line" smooth="yes"/>
      <point x="50" y="-12"/>
      <point x="63" y="-26"/>
    </contour>
  </outline>
</glyph>
<glyph name="h" format="1">
  <advance width="760"/>
  <unicode hex="0068"/>
  <outline>
    <contour>
      <point x="680" y="-34" type="curve" smooth="yes"/>
      <point x="696" y="-34"/>
      <point x="710" y="-20"/>
      <point x="710" y="-4" type="curve" smooth="yes"/>
      <point x="710" y="696" type="line" smooth="yes"/>
      <point x="710" y="722"/>
      <point x="685" y="735"/>
      <point x="663" y="721" type="curve" smooth="yes"/>
      <point x="129" y="365" type="line"/>
      <point x="110" y="797" type="line" smooth="yes"/>
      <point x="109" y="814"/>
      <point x="95" y="827"/>
      <point x="79" y="826" type="curve" smooth="yes"/>
      <point x="62" y="825"/>
      <point x="49" y="811"/>
      <point x="50" y="795" type="curve" smooth="yes"/>
      <point x="72" y="309" type="line" smooth="yes"/>
      <point x="73" y="284"/>
      <point x="97" y="272"/>
      <point x="118" y="286" type="curve" smooth="yes"/>
      <point x="650" y="640" type="line"/>
      <point x="650" y="-4" type="line" smooth="yes"/>
      <point x="650" y="-20"/>
      <point x="664" y="-34"/>
    </contour>
  </outline>
</glyph>
<glyph name="l" format="1">
  <advance width="759"/>
  <unicode hex="006C"/>
  <outline>
    <contour>
      <point x="709" y="-5" type="curve" smooth="yes"/>
      <point x="712" y="10"/>
      <point x="701" y="27"/>
      <point x="685" y="29" type="curve" smooth="yes"/>
      <point x="121" y="134" type="line"/>
      <point x="110" y="801" type="line" smooth="yes"/>
      <point x="110" y="817"/>
      <point x="96" y="830"/>
      <point x="79" y="830" type="curve" smooth="yes"/>
      <point x="63" y="830"/>
      <point x="50" y="816"/>
      <point x="50" y="799" type="curve" smooth="yes"/>
      <point x="62" y="108" type="line" smooth="yes"/>
      <point x="62" y="95"/>
      <point x="73" y="82"/>
      <point x="86" y="79" type="curve" smooth="yes"/>
      <point x="675" y="-29" type="line" smooth="yes"/>
      <point x="690" y="-32"/>
      <point x="707" y="-21"/>
    </contour>
  </outline>
</glyph>
<glyph name="n" format="1">
  <advance width="760"/>
  <unicode hex="006E"/>
  <outline>
    <contour>
      <point x="110" y="-1" type="curve" smooth="yes"/>
      <point x="110" y="73" type="line"/>
      <point x="362" y="644" type="line"/>
      <point x="653" y="85" type="line" smooth="yes"/>
      <point x="669" y="55"/>
      <point x="710" y="65"/>
      <point x="710" y="99" type="curve" smooth="yes"/>
      <point x="710" y="799" type="line" smooth="yes"/>
      <point x="710" y="815"/>
      <point x="696" y="829"/>
      <point x="680" y="829" type="curve" smooth="yes"/>
      <point x="664" y="829"/>
      <point x="650" y="815"/>
      <point x="650" y="799" type="curve" smooth="yes"/>
      <point x="650" y="221" type="line"/>
      <point x="386" y="727" type="line" smooth="yes"/>
      <point x="374" y="751"/>
      <point x="343" y="750"/>
      <point x="332" y="725" type="curve" smooth="yes"/>
      <point x="53" y="91" type="line" smooth="yes"/>
      <point x="51" y="88"/>
      <point x="50" y="82"/>
      <point x="50" y="79" type="curve" smooth="yes"/>
      <point x="50" y="-1" type="line" smooth="yes"/>
      <point x="50" y="-17"/>
      <point x="64" y="-31"/>
      <point x="80" y="-31" type="curve" smooth="yes"/>
      <point x="96" y="-31"/>
      <point x="110" y="-17"/>
    </contour>
  </outline>
</glyph>
<glyph name="t" format="1">
  <advance width="472"/>
  <unicode hex="0074"/>
  <outline>
    <contour>
      <point x="379" y="-30" type="curve" smooth="yes"/>
      <point x="396" y="-30"/>
      <point x="410" y="-17"/>
      <point x="410" y="-1" type="curve" smooth="yes"/>
      <point x="422" y="696" type="line" smooth="yes"/>
      <point x="423" y="708"/>
      <point x="413" y="721"/>
      <point x="402" y="725" type="curve" smooth="yes"/>
      <point x="89" y="828" type="line" smooth="yes"/>
      <point x="74" y="834"/>
      <point x="57" y="825"/>
      <point x="52" y="809" type="curve" smooth="yes"/>
      <point x="46" y="794"/>
      <point x="55" y="777"/>
      <point x="71" y="772" type="curve" smooth="yes"/>
      <point x="362" y="675" type="line"/>
      <point x="350" y="1" type="line" smooth="yes"/>
      <point x="350" y="-16"/>
      <point x="363" y="-30"/>
    </contour>
  </outline>
</glyph>
<glyph name="w" format="1">
  <advance width="760"/>
  <unicode hex="0077"/>
  <outline>
    <contour>
      <point x="95" y="74" type="curve" smooth="yes"/>
      <point x="695" y="434" type="line" smooth="yes"/>
      <point x="703" y="439"/>
      <point x="710" y="451"/>
      <point x="710" y="460" type="curve" smooth="yes"/>
      <point x="710" y="800" type="line" smooth="yes"/>
      <point x="710" y="816"/>
      <point x="696" y="830"/>
      <point x="680" y="830" type="curve" smooth="yes"/>
      <point x="664" y="830"/>
      <point x="650" y="816"/>
      <point x="650" y="800" type="curve" smooth="yes"/>
      <point x="650" y="477" type="line"/>
      <point x="110" y="153" type="line"/>
      <point x="110" y="800" type="line" smooth="yes"/>
      <point x="110" y="816"/>
      <point x="96" y="830"/>
      <point x="80" y="830" type="curve" smooth="yes"/>
      <point x="64" y="830"/>
      <point x="50" y="816"/>
      <point x="50" y="800" type="curve" smooth="yes"/>
      <point x="50" y="100" type="line"/>
      <point x="50" y="75"/>
      <point x="74" y="61"/>
    </contour>
  </outline>
</glyph>
<glyph name="x" format="1">
  <advance width="760"/>
  <unicode hex="0078"/>
  <outline>
    <contour>
      <point x="110" y="-5" type="curve" smooth="yes"/>
      <point x="164" y="348" type="line"/>
      <point x="183" y="363" type="line"/>
      <point x="661" y="-23" type="line" smooth="yes"/>
      <point x="674" y="-34"/>
      <point x="693" y="-31"/>
      <point x="703" y="-19" type="curve" smooth="yes"/>
      <point x="714" y="-6"/>
      <point x="711" y="13"/>
      <point x="699" y="23" type="curve" smooth="yes"/>
      <point x="231" y="401" type="line"/>
      <point x="699" y="777" type="line" smooth="yes"/>
      <point x="711" y="787"/>
      <point x="714" y="806"/>
      <point x="703" y="819" type="curve" smooth="yes"/>
      <point x="693" y="831"/>
      <point x="674" y="834"/>
      <point x="661" y="823" type="curve" smooth="yes"/>
      <point x="183" y="440" type="line"/>
      <point x="168" y="452" type="line"/>
      <point x="110" y="805" type="line" smooth="yes"/>
      <point x="107" y="821"/>
      <point x="91" y="832"/>
      <point x="75" y="830" type="curve" smooth="yes"/>
      <point x="59" y="827"/>
      <point x="48" y="811"/>
      <point x="50" y="795" type="curve" smooth="yes"/>
      <point x="110" y="431" type="line" smooth="yes"/>
      <point x="111" y="425"/>
      <point x="116" y="417"/>
      <point x="121" y="413" type="curve" smooth="yes"/>
      <point x="135" y="401" type="line"/>
      <point x="118" y="387" type="line" smooth="yes"/>
      <point x="113" y="383"/>
      <point x="108" y="375"/>
      <point x="107" y="368" type="curve" smooth="yes"/>
      <point x="50" y="5" type="line" smooth="yes"/>
      <point x="48" y="-11"/>
      <point x="59" y="-27"/>
      <point x="75" y="-30" type="curve" smooth="yes"/>
      <point x="91" y="-32"/>
      <point x="107" y="-21"/>
    </contour>
  </outline>
</glyph>
<glyph name="braceleft" format="1">
  <advance width="459"/>
  <unicode hex="007B"/>
  <outline>
    <contour>
      <point x="406" y="-17" type="curve" smooth="yes"/>
      <point x="414" y="-3"/>
      <point x="409" y="16"/>
      <point x="395" y="24" type="curve" smooth="yes"/>
      <point x="119" y="182" type="line"/>
      <point x="407" y="785" type="line" smooth="yes"/>
      <point x="414" y="800"/>
      <point x="408" y="818"/>
      <point x="393" y="825" type="curve" smooth="yes"/>
      <point x="378" y="832"/>
      <point x="360" y="826"/>
      <point x="353" y="811" type="curve" smooth="yes"/>
      <point x="53" y="183" type="line" smooth="yes"/>
      <point x="47" y="169"/>
      <point x="52" y="152"/>
      <point x="65" y="144" type="curve" smooth="yes"/>
      <point x="365" y="-28" type="line" smooth="yes"/>
      <point x="379" y="-36"/>
      <point x="398" y="-31"/>
    </contour>
  </outline>
</glyph>
<glyph name="braceright" format="1">
  <advance width="459"/>
  <unicode hex="007D"/>
  <outline>
    <contour>
      <point x="95" y="-27" type="curve" smooth="yes"/>
      <point x="395" y="145" type="line" smooth="yes"/>
      <point x="408" y="153"/>
      <point x="413" y="170"/>
      <point x="407" y="184" type="curve" smooth="yes"/>
      <point x="107" y="812" type="line" smooth="yes"/>
      <point x="100" y="827"/>
      <point x="82" y="833"/>
      <point x="67" y="826" type="curve" smooth="yes"/>
      <point x="52" y="819"/>
      <point x="46" y="801"/>
      <point x="53" y="786" type="curve" smooth="yes"/>
      <point x="341" y="183" type="line"/>
      <point x="65" y="25" type="line" smooth="yes"/>
      <point x="51" y="17"/>
      <point x="46" y="-2"/>
      <point x="54" y="-16" type="curve" smooth="yes"/>
      <point x="62" y="-30"/>
      <point x="81" y="-35"/>
    </contour>
  </outline>
</glyph>
<glyph name="asciitilde" format="1">
  <advance width="760"/>
  <unicode hex="007E"/>
  <outline>
    <contour>
      <point x="52" y="94" type="curve" smooth="yes"/>
      <point x="57" y="78"/>
      <point x="74" y="69"/>
      <point x="89" y="75" type="curve" smooth="yes"/>
      <point x="689" y="275" type="line" smooth="yes"/>
      <point x="705" y="280"/>
      <point x="714" y="297"/>
      <point x="708" y="312" type="curve" smooth="yes"/>
      <point x="703" y="328"/>
      <point x="686" y="337"/>
      <point x="671" y="331" type="curve" smooth="yes"/>
      <point x="71" y="131" type="line" smooth="yes"/>
      <point x="55" y="126"/>
      <point x="46" y="109"/>
    </contour>
  </outline>
</glyph>
<glyph name="sterling" format="1">
  <advance width="510"/>
  <unicode hex="00A3"/>
  <outline>
    <contour>
      <point x="438" y="-28" type="curve" smooth="yes"/>
      <point x="454" y="-23"/>
      <point x="463" y="-6"/>
      <point x="459" y="9" type="curve" smooth="yes"/>
      <point x="353" y="371" type="line"/>
      <point x="380" y="371" type="line" smooth="yes"/>
      <point x="396" y="371"/>
      <point x="410" y="385"/>
      <point x="410" y="401" type="curve" smooth="yes"/>
      <point x="410" y="417"/>
      <point x="396" y="431"/>
      <point x="380" y="431" type="curve" smooth="yes"/>
      <point x="335" y="431" type="line"/>
      <point x="270" y="654" type="line"/>
      <point x="447" y="776" type="line" smooth="yes"/>
      <point x="460" y="786"/>
      <point x="464" y="805"/>
      <point x="455" y="818" type="curve" smooth="yes"/>
      <point x="445" y="831"/>
      <point x="426" y="835"/>
      <point x="413" y="826" type="curve" smooth="yes"/>
      <point x="218" y="690" type="line" smooth="yes"/>
      <point x="208" y="684"/>
      <point x="203" y="669"/>
      <point x="207" y="657" type="curve" smooth="yes"/>
      <point x="273" y="431" type="line"/>
      <point x="80" y="431" type="line" smooth="yes"/>
      <point x="64" y="431"/>
      <point x="50" y="417"/>
      <point x="50" y="401" type="curve" smooth="yes"/>
      <point x="50" y="385"/>
      <point x="64" y="371"/>
      <point x="80" y="371" type="curve" smooth="yes"/>
      <point x="290" y="371" type="line"/>
      <point x="401" y="-7" type="line" smooth="yes"/>
      <point x="406" y="-23"/>
      <point x="423" y="-32"/>
    </contour>
  </outline>
</glyph>
<glyph name="section" format="1">
  <advance width="760"/>
  <unicode hex="00A7"/>
  <outline>
    <contour>
      <point x="688" y="134" type="curve" smooth="yes"/>
      <point x="617" y="199" type="line"/>
      <point x="622" y="200"/>
      <point x="626" y="203"/>
      <point x="629" y="207" type="curve" smooth="yes"/>
      <point x="640" y="219"/>
      <point x="639" y="238"/>
      <point x="627" y="249" type="curve" smooth="yes"/>
      <point x="186" y="649" type="line"/>
      <point x="675" y="573" type="line" smooth="yes"/>
      <point x="691" y="571"/>
      <point x="707" y="582"/>
      <point x="710" y="598" type="curve" smooth="yes"/>
      <point x="712" y="614"/>
      <point x="701" y="630"/>
      <point x="685" y="633" type="curve" smooth="yes"/>
      <point x="96" y="724" type="line" smooth="yes"/>
      <point x="65" y="729"/>
      <point x="48" y="694"/>
      <point x="72" y="672" type="curve" smooth="yes"/>
      <point x="143" y="607" type="line"/>
      <point x="138" y="606"/>
      <point x="134" y="603"/>
      <point x="131" y="599" type="curve" smooth="yes"/>
      <point x="120" y="587"/>
      <point x="121" y="568"/>
      <point x="133" y="557" type="curve" smooth="yes"/>
      <point x="574" y="157" type="line"/>
      <point x="85" y="233" type="line" smooth="yes"/>
      <point x="69" y="235"/>
      <point x="53" y="224"/>
      <point x="50" y="208" type="curve" smooth="yes"/>
      <point x="48" y="192"/>
      <point x="59" y="176"/>
      <point x="75" y="173" type="curve" smooth="yes"/>
      <point x="664" y="82" type="line" smooth="yes"/>
      <point x="695" y="77"/>
      <point x="712" y="112"/>
    </contour>
  </outline>
</glyph>
<glyph name="guillemotleft" format="1">
  <advance width="360"/>
  <unicode hex="00AB"/>
  <outline>
    <contour>
      <point x="280" y="427" type="curve" smooth="yes"/>
      <point x="264" y="427"/>
      <point x="250" y="413"/>
      <point x="250" y="397" type="curve" smooth="yes"/>
      <point x="250" y="-3" type="line" smooth="yes"/>
      <point x="250" y="-19"/>
      <point x="264" y="-33"/>
      <point x="280" y="-33" type="curve" smooth="yes"/>
      <point x="296" y="-33"/>
      <point x="310" y="-19"/>
      <point x="310" y="-3" type="curve" smooth="yes"/>
      <point x="310" y="397" type="line" smooth="yes"/>
      <point x="310" y="413"/>
      <point x="296" y="427"/>
    </contour>
    <contour>
      <point x="80" y="427" type="curve" smooth="yes"/>
      <point x="64" y="427"/>
      <point x="50" y="413"/>
      <point x="50" y="397" type="curve" smooth="yes"/>
      <point x="50" y="-3" type="line" smooth="yes"/>
      <point x="50" y="-19"/>
      <point x="64" y="-33"/>
      <point x="80" y="-33" type="curve" smooth="yes"/>
      <point x="96" y="-33"/>
      <point x="110" y="-19"/>
      <point x="110" y="-3" type="curve" smooth="yes"/>
      <point x="110" y="397" type="line" smooth="yes"/>
      <point x="110" y="413"/>
      <point x="96" y="427"/>
    </contour>
  </outline>
</glyph>
<glyph name="paragraph" format="1">
  <advance width="360"/>
  <unicode hex="00B6"/>
  <outline>
    <contour>
      <point x="280" y="-30" type="curve" smooth="yes"/>
      <point x="296" y="-30"/>
      <point x="310" y="-16"/>
      <point x="310" y="0" type="curve" smooth="yes"/>
      <point x="310" y="30" type="line" smooth="yes"/>
      <point x="310" y="32"/>
      <point x="309" y="36"/>
      <point x="309" y="39" type="curve" smooth="yes"/>
      <point x="109" y="709" type="line" smooth="yes"/>
      <point x="98" y="743"/>
      <point x="50" y="736"/>
      <point x="50" y="700" type="curve" smooth="yes"/>
      <point x="50" y="0" type="line" smooth="yes"/>
      <point x="50" y="-16"/>
      <point x="64" y="-30"/>
      <point x="80" y="-30" type="curve" smooth="yes"/>
      <point x="96" y="-30"/>
      <point x="110" y="-16"/>
      <point x="110" y="0" type="curve" smooth="yes"/>
      <point x="110" y="495" type="line"/>
      <point x="250" y="26" type="line"/>
      <point x="250" y="0" type="line" smooth="yes"/>
      <point x="250" y="-16"/>
      <point x="264" y="-30"/>
    </contour>
  </outline>
</glyph>
<glyph name="Acircumflex" format="1">
  <advance width="760"/>
  <unicode hex="00C2"/>
  <outline>
    <contour>
      <point x="50" y="928" type="curve" smooth="yes"/>
      <point x="50" y="912"/>
      <point x="64" y="898"/>
      <point x="80" y="898" type="curve" smooth="yes"/>
      <point x="680" y="898" type="line" smooth="yes"/>
      <point x="696" y="898"/>
      <point x="710" y="912"/>
      <point x="710" y="928" type="curve" smooth="yes"/>
      <point x="710" y="944"/>
      <point x="696" y="958"/>
      <point x="680" y="958" type="curve" smooth="yes"/>
      <point x="80" y="958" type="line" smooth="yes"/>
      <point x="64" y="958"/>
      <point x="50" y="944"/>
    </contour>
    <contour>
      <point x="680" y="376" type="curve" smooth="yes"/>
      <point x="664" y="376"/>
      <point x="650" y="362"/>
      <point x="650" y="346" type="curve" smooth="yes"/>
      <point x="650" y="-4" type="line" smooth="yes"/>
      <point x="650" y="-20"/>
      <point x="664" y="-34"/>
      <point x="680" y="-34" type="curve" smooth="yes"/>
      <point x="696" y="-34"/>
      <point x="710" y="-20"/>
      <point x="710" y="-4" type="curve" smooth="yes"/>
      <point x="710" y="346" type="line" smooth="yes"/>
      <point x="710" y="362"/>
      <point x="696" y="376"/>
    </contour>
  </outline>
</glyph>
<glyph name="Atilde" format="1">
  <advance width="760"/>
  <unicode hex="00C3"/>
  <outline>
    <contour>
      <point x="52" y="919" type="curve" smooth="yes"/>
      <point x="57" y="903"/>
      <point x="74" y="894"/>
      <point x="89" y="900" type="curve" smooth="yes"/>
      <point x="689" y="1100" type="line" smooth="yes"/>
      <point x="705" y="1105"/>
      <point x="714" y="1122"/>
      <point x="708" y="1137" type="curve" smooth="yes"/>
      <point x="703" y="1153"/>
      <point x="686" y="1162"/>
      <point x="671" y="1156" type="curve" smooth="yes"/>
      <point x="71" y="956" type="line" smooth="yes"/>
      <point x="55" y="951"/>
      <point x="46" y="934"/>
    </contour>
    <contour>
      <point x="680" y="376" type="curve" smooth="yes"/>
      <point x="664" y="376"/>
      <point x="650" y="362"/>
      <point x="650" y="346" type="curve" smooth="yes"/>
      <point x="650" y="-4" type="line" smooth="yes"/>
      <point x="650" y="-20"/>
      <point x="664" y="-34"/>
      <point x="680" y="-34" type="curve" smooth="yes"/>
      <point x="696" y="-34"/>
      <point x="710" y="-20"/>
      <point x="710" y="-4" type="curve" smooth="yes"/>
      <point x="710" y="346" type="line" smooth="yes"/>
      <point x="710" y="362"/>
      <point x="696" y="376"/>
    </contour>
  </outline>
</glyph>
<glyph name="Ccedilla" format="1">
  <advance width="762"/>
  <unicode hex="00C7"/>
  <outline>
    <contour>
      <point x="680" y="171" type="line" smooth="yes"/>
      <point x="696" y="170"/>
      <point x="711" y="183"/>
      <point x="712" y="199" type="curve" smooth="yes"/>
      <point x="713" y="215"/>
      <point x="700" y="230"/>
      <point x="684" y="231" type="curve" smooth="yes"/>
      <point x="180" y="265" type="line"/>
      <point x="697" y="575" type="line" smooth="yes"/>
      <point x="711" y="584"/>
      <point x="716" y="603"/>
      <point x="708" y="616" type="curve" smooth="yes"/>
      <point x="699" y="630"/>
      <point x="680" y="635"/>
      <point x="667" y="627" type="curve" smooth="yes"/>
      <point x="67" y="267" type="line" smooth="yes"/>
      <point x="39" y="251"/>
      <point x="48" y="214"/>
      <point x="80" y="211" type="curve" smooth="yes"/>
    </contour>
  </outline>
</glyph>
<glyph name="Egrave" format="1">
  <advance width="765"/>
  <unicode hex="00C8"/>
  <outline>
    <contour>
      <point x="405" y="911" type="curve" smooth="yes"/>
      <point x="414" y="925"/>
      <point x="410" y="944"/>
      <point x="397" y="953" type="curve" smooth="yes"/>
      <point x="97" y="1153" type="line" smooth="yes"/>
      <point x="83" y="1162"/>
      <point x="64" y="1158"/>
      <point x="55" y="1145" type="curve" smooth="yes"/>
      <point x="46" y="1131"/>
      <point x="50" y="1112"/>
      <point x="63" y="1103" type="curve" smooth="yes"/>
      <point x="363" y="903" type="line" smooth="yes"/>
      <point x="377" y="894"/>
      <point x="396" y="898"/>
    </contour>
    <contour>
      <point x="508" y="-21" type="curve" smooth="yes"/>
      <point x="706" y="175" type="line" smooth="yes"/>
      <point x="718" y="186"/>
      <point x="718" y="206"/>
      <point x="706" y="217" type="curve" smooth="yes"/>
      <point x="695" y="229"/>
      <point x="675" y="229"/>
      <point x="664" y="217" type="curve" smooth="yes"/>
      <point x="482" y="37" type="line"/>
      <point x="146" y="246" type="line"/>
      <point x="699" y="576" type="line" smooth="yes"/>
      <point x="713" y="585"/>
      <point x="718" y="603"/>
      <point x="710" y="617" type="curve" smooth="yes"/>
      <point x="701" y="631"/>
      <point x="683" y="636"/>
      <point x="669" y="628" type="curve" smooth="yes"/>
      <point x="73" y="272" type="line" smooth="yes"/>
      <point x="53" y="260"/>
      <point x="52" y="234"/>
      <point x="73" y="221" type="curve" smooth="yes"/>
      <point x="469" y="-25" type="line" smooth="yes"/>
      <point x="474" y="-29"/>
      <point x="480" y="-30"/>
      <point x="486" y="-30" type="curve"/>
      <point x="494" y="-30"/>
      <point x="502" y="-27"/>
    </contour>
  </outline>
</glyph>
<glyph name="Eacute" format="1">
  <advance width="757"/>
  <unicode hex="00C9"/>
  <outline>
    <contour>
      <point x="347" y="911" type="curve" smooth="yes"/>
      <point x="356" y="898"/>
      <point x="375" y="894"/>
      <point x="389" y="903" type="curve" smooth="yes"/>
      <point x="689" y="1103" type="line" smooth="yes"/>
      <point x="702" y="1112"/>
      <point x="706" y="1131"/>
      <point x="697" y="1145" type="curve" smooth="yes"/>
      <point x="688" y="1158"/>
      <point x="669" y="1162"/>
      <point x="655" y="1153" type="curve" smooth="yes"/>
      <point x="355" y="953" type="line" smooth="yes"/>
      <point x="342" y="944"/>
      <point x="338" y="925"/>
    </contour>
    <contour>
      <point x="500" y="-21" type="curve" smooth="yes"/>
      <point x="698" y="175" type="line" smooth="yes"/>
      <point x="710" y="186"/>
      <point x="710" y="206"/>
      <point x="698" y="217" type="curve" smooth="yes"/>
      <point x="687" y="229"/>
      <point x="667" y="229"/>
      <point x="656" y="217" type="curve" smooth="yes"/>
      <point x="474" y="37" type="line"/>
      <point x="138" y="246" type="line"/>
      <point x="691" y="576" type="line" smooth="yes"/>
      <point x="705" y="585"/>
      <point x="710" y="603"/>
      <point x="702" y="617" type="curve" smooth="yes"/>
      <point x="693" y="631"/>
      <point x="675" y="636"/>
      <point x="661" y="628" type="curve" smooth="yes"/>
      <point x="65" y="272" type="line" smooth="yes"/>
      <point x="45" y="260"/>
      <point x="44" y="234"/>
      <point x="65" y="221" type="curve" smooth="yes"/>
      <point x="461" y="-25" type="line" smooth="yes"/>
      <point x="466" y="-29"/>
      <point x="472" y="-30"/>
      <point x="478" y="-30" type="curve"/>
      <point x="486" y="-30"/>
      <point x="494" y="-27"/>
    </contour>
  </outline>
</glyph>
<glyph name="Ecircumflex" format="1">
  <advance width="765"/>
  <unicode hex="00CA"/>
  <outline>
    <contour>
      <point x="50" y="928" type="curve" smooth="yes"/>
      <point x="50" y="912"/>
      <point x="64" y="898"/>
      <point x="80" y="898" type="curve" smooth="yes"/>
      <point x="680" y="898" type="line" smooth="yes"/>
      <point x="696" y="898"/>
      <point x="710" y="912"/>
      <point x="710" y="928" type="curve" smooth="yes"/>
      <point x="710" y="944"/>
      <point x="696" y="958"/>
      <point x="680" y="958" type="curve" smooth="yes"/>
      <point x="80" y="958" type="line" smooth="yes"/>
      <point x="64" y="958"/>
      <point x="50" y="944"/>
    </contour>
    <contour>
      <point x="508" y="-21" type="curve" smooth="yes"/>
      <point x="706" y="175" type="line" smooth="yes"/>
      <point x="718" y="186"/>
      <point x="718" y="206"/>
      <point x="706" y="217" type="curve" smooth="yes"/>
      <point x="695" y="229"/>
      <point x="675" y="229"/>
      <point x="664" y="217" type="curve" smooth="yes"/>
      <point x="482" y="37" type="line"/>
      <point x="146" y="246" type="line"/>
      <point x="699" y="576" type="line" smooth="yes"/>
      <point x="713" y="585"/>
      <point x="718" y="603"/>
      <point x="710" y="617" type="curve" smooth="yes"/>
      <point x="701" y="631"/>
      <point x="683" y="636"/>
      <point x="669" y="628" type="curve" smooth="yes"/>
      <point x="73" y="272" type="line" smooth="yes"/>
      <point x="53" y="260"/>
      <point x="52" y="234"/>
      <point x="73" y="221" type="curve" smooth="yes"/>
      <point x="469" y="-25" type="line" smooth="yes"/>
      <point x="474" y="-29"/>
      <point x="480" y="-30"/>
      <point x="486" y="-30" type="curve"/>
      <point x="494" y="-30"/>
      <point x="502" y="-27"/>
    </contour>
  </outline>
</glyph>
<glyph name="Icircumflex" format="1">
  <advance width="764"/>
  <unicode hex="00CE"/>
  <outline>
    <contour>
      <point x="54" y="928" type="curve" smooth="yes"/>
      <point x="54" y="912"/>
      <point x="68" y="898"/>
      <point x="84" y="898" type="curve" smooth="yes"/>
      <point x="684" y="898" type="line" smooth="yes"/>
      <point x="700" y="898"/>
      <point x="714" y="912"/>
      <point x="714" y="928" type="curve" smooth="yes"/>
      <point x="714" y="944"/>
      <point x="700" y="958"/>
      <point x="684" y="958" type="curve" smooth="yes"/>
      <point x="84" y="958" type="line" smooth="yes"/>
      <point x="68" y="958"/>
      <point x="54" y="944"/>
    </contour>
    <contour>
      <point x="107" y="-14" type="curve" smooth="yes"/>
      <point x="403" y="597" type="line"/>
      <point x="695" y="773" type="line" smooth="yes"/>
      <point x="709" y="782"/>
      <point x="714" y="801"/>
      <point x="706" y="814" type="curve" smooth="yes"/>
      <point x="697" y="828"/>
      <point x="678" y="833"/>
      <point x="665" y="825" type="curve" smooth="yes"/>
      <point x="364" y="644" type="line" smooth="yes"/>
      <point x="360" y="642"/>
      <point x="355" y="636"/>
      <point x="353" y="631" type="curve" smooth="yes"/>
      <point x="53" y="12" type="line" smooth="yes"/>
      <point x="46" y="-3"/>
      <point x="52" y="-21"/>
      <point x="67" y="-28" type="curve" smooth="yes"/>
      <point x="82" y="-35"/>
      <point x="100" y="-29"/>
    </contour>
  </outline>
</glyph>
<glyph name="Ntilde" format="1">
  <advance width="764"/>
  <unicode hex="00D1"/>
  <outline>
    <contour>
      <point x="56" y="919" type="curve" smooth="yes"/>
      <point x="61" y="903"/>
      <point x="78" y="894"/>
      <point x="93" y="900" type="curve" smooth="yes"/>
      <point x="693" y="1100" type="line" smooth="yes"/>
      <point x="709" y="1105"/>
      <point x="718" y="1122"/>
      <point x="712" y="1137" type="curve" smooth="yes"/>
      <point x="707" y="1153"/>
      <point x="690" y="1162"/>
      <point x="675" y="1156" type="curve" smooth="yes"/>
      <point x="75" y="956" type="line" smooth="yes"/>
      <point x="59" y="951"/>
      <point x="50" y="934"/>
    </contour>
    <contour>
      <point x="110" y="-1" type="curve" smooth="yes"/>
      <point x="110" y="73" type="line"/>
      <point x="362" y="644" type="line"/>
      <point x="653" y="85" type="line" smooth="yes"/>
      <point x="669" y="55"/>
      <point x="710" y="65"/>
      <point x="710" y="99" type="curve" smooth="yes"/>
      <point x="710" y="799" type="line" smooth="yes"/>
      <point x="710" y="815"/>
      <point x="696" y="829"/>
      <point x="680" y="829" type="curve" smooth="yes"/>
      <point x="664" y="829"/>
      <point x="650" y="815"/>
      <point x="650" y="799" type="curve" smooth="yes"/>
      <point x="650" y="221" type="line"/>
      <point x="386" y="727" type="line" smooth="yes"/>
      <point x="374" y="751"/>
      <point x="343" y="750"/>
      <point x="332" y="725" type="curve" smooth="yes"/>
      <point x="53" y="91" type="line" smooth="yes"/>
      <point x="51" y="88"/>
      <point x="50" y="82"/>
      <point x="50" y="79" type="curve" smooth="yes"/>
      <point x="50" y="-1" type="line" smooth="yes"/>
      <point x="50" y="-17"/>
      <point x="64" y="-31"/>
      <point x="80" y="-31" type="curve" smooth="yes"/>
      <point x="96" y="-31"/>
      <point x="110" y="-17"/>
    </contour>
  </outline>
</glyph>
<glyph name="Ograve" format="1">
  <advance width="758"/>
  <unicode hex="00D2"/>
  <outline>
    <contour>
      <point x="406" y="911" type="curve" smooth="yes"/>
      <point x="415" y="925"/>
      <point x="411" y="944"/>
      <point x="398" y="953" type="curve" smooth="yes"/>
      <point x="98" y="1153" type="line" smooth="yes"/>
      <point x="84" y="1162"/>
      <point x="65" y="1158"/>
      <point x="56" y="1145" type="curve" smooth="yes"/>
      <point x="47" y="1131"/>
      <point x="51" y="1112"/>
      <point x="64" y="1103" type="curve" smooth="yes"/>
      <point x="364" y="903" type="line" smooth="yes"/>
      <point x="378" y="894"/>
      <point x="397" y="898"/>
    </contour>
    <contour>
      <point x="514" y="-9" type="curve" smooth="yes"/>
      <point x="707" y="658" type="line" smooth="yes"/>
      <point x="715" y="686"/>
      <point x="688" y="707"/>
      <point x="662" y="692" type="curve" smooth="yes"/>
      <point x="66" y="335" type="line" smooth="yes"/>
      <point x="46" y="323"/>
      <point x="45" y="299"/>
      <point x="62" y="285" type="curve" smooth="yes"/>
      <point x="456" y="-25" type="line" smooth="yes"/>
      <point x="463" y="-30"/>
      <point x="471" y="-32"/>
      <point x="479" y="-30" type="curve"/>
      <point x="492" y="-34"/>
      <point x="509" y="-25"/>
    </contour>
    <contour>
      <point x="467" y="44" type="line"/>
      <point x="134" y="306" type="line"/>
      <point x="628" y="601" type="line"/>
    </contour>
  </outline>
</glyph>
<glyph name="Oacute" format="1">
  <advance width="761"/>
  <unicode hex="00D3"/>
  <outline>
    <contour>
      <point x="356" y="911" type="curve" smooth="yes"/>
      <point x="365" y="898"/>
      <point x="384" y="894"/>
      <point x="398" y="903" type="curve" smooth="yes"/>
      <point x="698" y="1103" type="line" smooth="yes"/>
      <point x="711" y="1112"/>
      <point x="715" y="1131"/>
      <point x="706" y="1145" type="curve" smooth="yes"/>
      <point x="697" y="1158"/>
      <point x="678" y="1162"/>
      <point x="664" y="1153" type="curve" smooth="yes"/>
      <point x="364" y="953" type="line" smooth="yes"/>
      <point x="351" y="944"/>
      <point x="347" y="925"/>
    </contour>
    <contour>
      <point x="514" y="-9" type="curve" smooth="yes"/>
      <point x="707" y="658" type="line" smooth="yes"/>
      <point x="715" y="686"/>
      <point x="688" y="707"/>
      <point x="662" y="692" type="curve" smooth="yes"/>
      <point x="66" y="335" type="line" smooth="yes"/>
      <point x="46" y="323"/>
      <point x="45" y="299"/>
      <point x="62" y="285" type="curve" smooth="yes"/>
      <point x="456" y="-25" type="line" smooth="yes"/>
      <point x="463" y="-30"/>
      <point x="471" y="-32"/>
      <point x="479" y="-30" type="curve"/>
      <point x="492" y="-34"/>
      <point x="509" y="-25"/>
    </contour>
    <contour>
      <point x="467" y="44" type="line"/>
      <point x="134" y="306" type="line"/>
      <point x="628" y="601" type="line"/>
    </contour>
  </outline>
</glyph>
<glyph name="Otilde" format="1">
  <advance width="761"/>
  <unicode hex="00D5"/>
  <outline>
    <contour>
      <point x="53" y="919" type="curve" smooth="yes"/>
      <point x="58" y="903"/>
      <point x="75" y="894"/>
      <point x="90" y="900" type="curve" smooth="yes"/>
      <point x="690" y="1100" type="line" smooth="yes"/>
      <point x="706" y="1105"/>
      <point x="715" y="1122"/>
      <point x="709" y="1137" type="curve" smooth="yes"/>
      <point x="704" y="1153"/>
      <point x="687" y="1162"/>
      <point x="672" y="1156" type="curve" smooth="yes"/>
      <point x="72" y="956" type="line" smooth="yes"/>
      <point x="56" y="951"/>
      <point x="47" y="934"/>
    </contour>
    <contour>
      <point x="514" y="-9" type="curve" smooth="yes"/>
      <point x="707" y="658" type="line" smooth="yes"/>
      <point x="715" y="686"/>
      <point x="688" y="707"/>
      <point x="662" y="692" type="curve" smooth="yes"/>
      <point x="66" y="335" type="line" smooth="yes"/>
      <point x="46" y="323"/>
      <point x="45" y="299"/>
      <point x="62" y="285" type="curve" smooth="yes"/>
      <point x="456" y="-25" type="line" smooth="yes"/>
      <point x="463" y="-30"/>
      <point x="471" y="-32"/>
      <point x="479" y="-30" type="curve"/>
      <point x="492" y="-34"/>
      <point x="509" y="-25"/>
    </contour>
    <contour>
      <point x="467" y="44" type="line"/>
      <point x="134" y="306" type="line"/>
      <point x="628" y="601" type="line"/>
    </contour>
  </outline>
</glyph>
<glyph name="Oslash" format="1">
  <advance width="760"/>
  <unicode hex="00D8"/>
  <outline>
    <contour>
      <point x="104" y="-17" type="curve" smooth="yes"/>
      <point x="704" y="783" type="line" smooth="yes"/>
      <point x="714" y="796"/>
      <point x="711" y="815"/>
      <point x="698" y="825" type="curve" smooth="yes"/>
      <point x="685" y="835"/>
      <point x="666" y="832"/>
      <point x="656" y="819" type="curve" smooth="yes"/>
      <point x="56" y="19" type="line" smooth="yes"/>
      <point x="46" y="6"/>
      <point x="49" y="-13"/>
      <point x="62" y="-23" type="curve" smooth="yes"/>
      <point x="75" y="-33"/>
      <point x="94" y="-30"/>
    </contour>
    <contour>
      <point x="505" y="101" type="curve" smooth="yes"/>
      <point x="505" y="117"/>
      <point x="491" y="131"/>
      <point x="475" y="131" type="curve" smooth="yes"/>
      <point x="465" y="131" type="line" smooth="yes"/>
      <point x="449" y="131"/>
      <point x="435" y="117"/>
      <point x="435" y="101" type="curve" smooth="yes"/>
      <point x="435" y="85"/>
      <point x="449" y="71"/>
      <point x="465" y="71" type="curve" smooth="yes"/>
      <point x="475" y="71" type="line" smooth="yes"/>
      <point x="491" y="71"/>
      <point x="505" y="85"/>
    </contour>
  </outline>
</glyph>
<glyph name="Uacute" format="1">
  <advance width="761"/>
  <unicode hex="00DA"/>
  <outline>
    <contour>
      <point x="356" y="911" type="curve" smooth="yes"/>
      <point x="365" y="898"/>
      <point x="384" y="894"/>
      <point x="398" y="903" type="curve" smooth="yes"/>
      <point x="698" y="1103" type="line" smooth="yes"/>
      <point x="711" y="1112"/>
      <point x="715" y="1131"/>
      <point x="706" y="1145" type="curve" smooth="yes"/>
      <point x="697" y="1158"/>
      <point x="678" y="1162"/>
      <point x="664" y="1153" type="curve" smooth="yes"/>
      <point x="364" y="953" type="line" smooth="yes"/>
      <point x="351" y="944"/>
      <point x="347" y="925"/>
    </contour>
    <contour>
      <point x="698" y="99" type="curve" smooth="yes"/>
      <point x="709" y="799" type="line" smooth="yes"/>
      <point x="709" y="815"/>
      <point x="696" y="829"/>
      <point x="679" y="829" type="curve" smooth="yes"/>
      <point x="663" y="829"/>
      <point x="649" y="816"/>
      <point x="649" y="799" type="curve" smooth="yes"/>
      <point x="639" y="153" type="line"/>
      <point x="110" y="486" type="line"/>
      <point x="110" y="799" type="line" smooth="yes"/>
      <point x="110" y="815"/>
      <point x="96" y="829"/>
      <point x="80" y="829" type="curve" smooth="yes"/>
      <point x="64" y="829"/>
      <point x="50" y="815"/>
      <point x="50" y="799" type="curve" smooth="yes"/>
      <point x="50" y="469" type="line" smooth="yes"/>
      <point x="50" y="460"/>
      <point x="56" y="448"/>
      <point x="64" y="444" type="curve" smooth="yes"/>
      <point x="652" y="74" type="line" smooth="yes"/>
      <point x="674" y="61"/>
      <point x="698" y="74"/>
    </contour>
  </outline>
</glyph>
<glyph name="Ucircumflex" format="1">
  <advance width="761"/>
  <unicode hex="00DB"/>
  <outline>
    <contour>
      <point x="51" y="928" type="curve" smooth="yes"/>
      <point x="51" y="912"/>
      <point x="65" y="898"/>
      <point x="81" y="898" type="curve" smooth="yes"/>
      <point x="681" y="898" type="line" smooth="yes"/>
      <point x="697" y="898"/>
      <point x="711" y="912"/>
      <point x="711" y="928" type="curve" smooth="yes"/>
      <point x="711" y="944"/>
      <point x="697" y="958"/>
      <point x="681" y="958" type="curve" smooth="yes"/>
      <point x="81" y="958" type="line" smooth="yes"/>
      <point x="65" y="958"/>
      <point x="51" y="944"/>
    </contour>
    <contour>
      <point x="698" y="99" type="curve" smooth="yes"/>
      <point x="709" y="799" type="line" smooth="yes"/>
      <point x="709" y="815"/>
      <point x="696" y="829"/>
      <point x="679" y="829" type="curve" smooth="yes"/>
      <point x="663" y="829"/>
      <point x="649" y="816"/>
      <point x="649" y="799" type="curve" smooth="yes"/>
      <point x="639" y="153" type="line"/>
      <point x="110" y="486" type="line"/>
      <point x="110" y="799" type="line" smooth="yes"/>
      <point x="110" y="815"/>
      <point x="96" y="829"/>
      <point x="80" y="829" type="curve" smooth="yes"/>
      <point x="64" y="829"/>
      <point x="50" y="815"/>
      <point x="50" y="799" type="curve" smooth="yes"/>
      <point x="50" y="469" type="line" smooth="yes"/>
      <point x="50" y="460"/>
      <point x="56" y="448"/>
      <point x="64" y="444" type="curve" smooth="yes"/>
      <point x="652" y="74" type="line" smooth="yes"/>
      <point x="674" y="61"/>
      <point x="698" y="74"/>
    </contour>
  </outline>
</glyph>
<glyph name="agrave" format="1">
  <advance width="760"/>
  <unicode hex="00E0"/>
  <outline>
    <contour>
      <point x="405" y="911" type="curve" smooth="yes"/>
      <point x="414" y="925"/>
      <point x="410" y="944"/>
      <point x="397" y="953" type="curve" smooth="yes"/>
      <point x="97" y="1153" type="line" smooth="yes"/>
      <point x="83" y="1162"/>
      <point x="64" y="1158"/>
      <point x="55" y="1145" type="curve" smooth="yes"/>
      <point x="46" y="1131"/>
      <point x="50" y="1112"/>
      <point x="63" y="1103" type="curve" smooth="yes"/>
      <point x="363" y="903" type="line" smooth="yes"/>
      <point x="377" y="894"/>
      <point x="396" y="898"/>
    </contour>
    <contour>
      <point x="680" y="376" type="curve" smooth="yes"/>
      <point x="664" y="376"/>
      <point x="650" y="362"/>
      <point x="650" y="346" type="curve" smooth="yes"/>
      <point x="650" y="-4" type="line" smooth="yes"/>
      <point x="650" y="-20"/>
      <point x="664" y="-34"/>
      <point x="680" y="-34" type="curve" smooth="yes"/>
      <point x="696" y="-34"/>
      <point x="710" y="-20"/>
      <point x="710" y="-4" type="curve" smooth="yes"/>
      <point x="710" y="346" type="line" smooth="yes"/>
      <point x="710" y="362"/>
      <point x="696" y="376"/>
    </contour>
  </outline>
</glyph>
<glyph name="aacute" format="1">
  <advance width="460"/>
  <unicode hex="00E1"/>
  <outline>
    <contour>
      <point x="55" y="911" type="curve" smooth="yes"/>
      <point x="64" y="898"/>
      <point x="83" y="894"/>
      <point x="97" y="903" type="curve" smooth="yes"/>
      <point x="397" y="1103" type="line" smooth="yes"/>
      <point x="410" y="1112"/>
      <point x="414" y="1131"/>
      <point x="405" y="1145" type="curve" smooth="yes"/>
      <point x="396" y="1158"/>
      <point x="377" y="1162"/>
      <point x="363" y="1153" type="curve" smooth="yes"/>
      <point x="63" y="953" type="line" smooth="yes"/>
      <point x="50" y="944"/>
      <point x="46" y="925"/>
    </contour>
    <contour>
      <point x="380" y="376" type="curve" smooth="yes"/>
      <point x="364" y="376"/>
      <point x="350" y="362"/>
      <point x="350" y="346" type="curve" smooth="yes"/>
      <point x="350" y="-4" type="line" smooth="yes"/>
      <point x="350" y="-20"/>
      <point x="364" y="-34"/>
      <point x="380" y="-34" type="curve" smooth="yes"/>
      <point x="396" y="-34"/>
      <point x="410" y="-20"/>
      <point x="410" y="-4" type="curve" smooth="yes"/>
      <point x="410" y="346" type="line" smooth="yes"/>
      <point x="410" y="362"/>
      <point x="396" y="376"/>
    </contour>
  </outline>
</glyph>
<glyph name="igrave" format="1">
  <advance width="760"/>
  <unicode hex="00EC"/>
  <outline>
    <contour>
      <point x="409" y="911" type="curve" smooth="yes"/>
      <point x="418" y="925"/>
      <point x="414" y="944"/>
      <point x="401" y="953" type="curve" smooth="yes"/>
      <point x="101" y="1153" type="line" smooth="yes"/>
      <point x="87" y="1162"/>
      <point x="68" y="1158"/>
      <point x="59" y="1145" type="curve" smooth="yes"/>
      <point x="50" y="1131"/>
      <point x="54" y="1112"/>
      <point x="67" y="1103" type="curve" smooth="yes"/>
      <point x="367" y="903" type="line" smooth="yes"/>
      <point x="381" y="894"/>
      <point x="400" y="898"/>
    </contour>
    <contour>
      <point x="107" y="-14" type="curve" smooth="yes"/>
      <point x="403" y="597" type="line"/>
      <point x="695" y="773" type="line" smooth="yes"/>
      <point x="709" y="782"/>
      <point x="714" y="801"/>
      <point x="706" y="814" type="curve" smooth="yes"/>
      <point x="697" y="828"/>
      <point x="678" y="833"/>
      <point x="665" y="825" type="curve" smooth="yes"/>
      <point x="364" y="644" type="line" smooth="yes"/>
      <point x="360" y="642"/>
      <point x="355" y="636"/>
      <point x="353" y="631" type="curve" smooth="yes"/>
      <point x="53" y="12" type="line" smooth="yes"/>
      <point x="46" y="-3"/>
      <point x="52" y="-21"/>
      <point x="67" y="-28" type="curve" smooth="yes"/>
      <point x="82" y="-35"/>
      <point x="100" y="-29"/>
    </contour>
  </outline>
</glyph>
<glyph name="iacute" format="1">
  <advance width="764"/>
  <unicode hex="00ED"/>
  <outline>
    <contour>
      <point x="359" y="911" type="curve" smooth="yes"/>
      <point x="368" y="898"/>
      <point x="387" y="894"/>
      <point x="401" y="903" type="curve" smooth="yes"/>
      <point x="701" y="1103" type="line" smooth="yes"/>
      <point x="714" y="1112"/>
      <point x="718" y="1131"/>
      <point x="709" y="1145" type="curve" smooth="yes"/>
      <point x="700" y="1158"/>
      <point x="681" y="1162"/>
      <point x="667" y="1153" type="curve" smooth="yes"/>
      <point x="367" y="953" type="line" smooth="yes"/>
      <point x="354" y="944"/>
      <point x="350" y="925"/>
    </contour>
    <contour>
      <point x="107" y="-14" type="curve" smooth="yes"/>
      <point x="403" y="597" type="line"/>
      <point x="695" y="773" type="line" smooth="yes"/>
      <point x="709" y="782"/>
      <point x="714" y="801"/>
      <point x="706" y="814" type="curve" smooth="yes"/>
      <point x="697" y="828"/>
      <point x="678" y="833"/>
      <point x="665" y="825" type="curve" smooth="yes"/>
      <point x="364" y="644" type="line" smooth="yes"/>
      <point x="360" y="642"/>
      <point x="355" y="636"/>
      <point x="353" y="631" type="curve" smooth="yes"/>
      <point x="53" y="12" type="line" smooth="yes"/>
      <point x="46" y="-3"/>
      <point x="52" y="-21"/>
      <point x="67" y="-28" type="curve" smooth="yes"/>
      <point x="82" y="-35"/>
      <point x="100" y="-29"/>
    </contour>
  </outline>
</glyph>
<glyph name="ugrave" format="1">
  <advance width="759"/>
  <unicode hex="00F9"/>
  <outline>
    <contour>
      <point x="406" y="911" type="curve" smooth="yes"/>
      <point x="415" y="925"/>
      <point x="411" y="944"/>
      <point x="398" y="953" type="curve" smooth="yes"/>
      <point x="98" y="1153" type="line" smooth="yes"/>
      <point x="84" y="1162"/>
      <point x="65" y="1158"/>
      <point x="56" y="1145" type="curve" smooth="yes"/>
      <point x="47" y="1131"/>
      <point x="51" y="1112"/>
      <point x="64" y="1103" type="curve" smooth="yes"/>
      <point x="364" y="903" type="line" smooth="yes"/>
      <point x="378" y="894"/>
      <point x="397" y="898"/>
    </contour>
    <contour>
      <point x="698" y="99" type="curve" smooth="yes"/>
      <point x="709" y="799" type="line" smooth="yes"/>
      <point x="709" y="815"/>
      <point x="696" y="829"/>
      <point x="679" y="829" type="curve" smooth="yes"/>
      <point x="663" y="829"/>
      <point x="649" y="816"/>
      <point x="649" y="799" type="curve" smooth="yes"/>
      <point x="639" y="153" type="line"/>
      <point x="110" y="486" type="line"/>
      <point x="110" y="799" type="line" smooth="yes"/>
      <point x="110" y="815"/>
      <point x="96" y="829"/>
      <point x="80" y="829" type="curve" smooth="yes"/>
      <point x="64" y="829"/>
      <point x="50" y="815"/>
      <point x="50" y="799" type="curve" smooth="yes"/>
      <point x="50" y="469" type="line" smooth="yes"/>
      <point x="50" y="460"/>
      <point x="56" y="448"/>
      <point x="64" y="444" type="curve" smooth="yes"/>
      <point x="652" y="74" type="line" smooth="yes"/>
      <point x="674" y="61"/>
      <point x="698" y="74"/>
    </contour>
  </outline>
</glyph>
<glyph name="circumflex" format="1">
  <advance width="760"/>
  <unicode hex="02C6"/>
  <outline>
    <contour>
      <point x="50" y="928" type="curve" smooth="yes"/>
      <point x="50" y="912"/>
      <point x="64" y="898"/>
      <point x="80" y="898" type="curve" smooth="yes"/>
      <point x="680" y="898" type="line" smooth="yes"/>
      <point x="696" y="898"/>
      <point x="710" y="912"/>
      <point x="710" y="928" type="curve" smooth="yes"/>
      <point x="710" y="944"/>
      <point x="696" y="958"/>
      <point x="680" y="958" type="curve" smooth="yes"/>
      <point x="80" y="958" type="line" smooth="yes"/>
      <point x="64" y="958"/>
      <point x="50" y="944"/>
    </contour>
  </outline>
</glyph>
<glyph name="emdash" format="1">
  <advance width="560"/>
  <unicode hex="2014"/>
  <outline>
    <contour>
      <point x="50" y="272" type="curve" smooth="yes"/>
      <point x="50" y="256"/>
      <point x="64" y="242"/>
      <point x="80" y="242" type="curve" smooth="yes"/>
      <point x="480" y="242" type="line" smooth="yes"/>
      <point x="496" y="242"/>
      <point x="510" y="256"/>
      <point x="510" y="272" type="curve" smooth="yes"/>
      <point x="510" y="288"/>
      <point x="496" y="302"/>
      <point x="480" y="302" type="curve" smooth="yes"/>
      <point x="80" y="302" type="line" smooth="yes"/>
      <point x="64" y="302"/>
      <point x="50" y="288"/>
    </contour>
  </outline>
</glyph>
<glyph name="quoteleft" format="1">
  <advance width="260"/>
  <unicode hex="2018"/>
  <outline>
    <contour>
      <point x="67" y="577" type="curve" smooth="yes"/>
      <point x="81" y="570"/>
      <point x="100" y="576"/>
      <point x="107" y="591" type="curve" smooth="yes"/>
      <point x="207" y="791" type="line" smooth="yes"/>
      <point x="214" y="805"/>
      <point x="208" y="824"/>
      <point x="193" y="831" type="curve" smooth="yes"/>
      <point x="179" y="838"/>
      <point x="160" y="832"/>
      <point x="153" y="817" type="curve" smooth="yes"/>
      <point x="53" y="617" type="line" smooth="yes"/>
      <point x="46" y="603"/>
      <point x="52" y="584"/>
    </contour>
  </outline>
</glyph>
<glyph name="quotedblleft" format="1">
  <advance width="366"/>
  <unicode hex="201C"/>
  <outline>
    <contour>
      <point x="173" y="577" type="curve" smooth="yes"/>
      <point x="187" y="570"/>
      <point x="206" y="576"/>
      <point x="213" y="591" type="curve" smooth="yes"/>
      <point x="313" y="791" type="line" smooth="yes"/>
      <point x="320" y="805"/>
      <point x="314" y="824"/>
      <point x="299" y="831" type="curve" smooth="yes"/>
      <point x="285" y="838"/>
      <point x="266" y="832"/>
      <point x="259" y="817" type="curve" smooth="yes"/>
      <point x="159" y="617" type="line" smooth="yes"/>
      <point x="152" y="603"/>
      <point x="158" y="584"/>
    </contour>
    <contour>
      <point x="67" y="577" type="curve" smooth="yes"/>
      <point x="81" y="570"/>
      <point x="100" y="576"/>
      <point x="107" y="591" type="curve" smooth="yes"/>
      <point x="207" y="791" type="line" smooth="yes"/>
      <point x="214" y="805"/>
      <point x="208" y="824"/>
      <point x="193" y="831" type="curve" smooth="yes"/>
      <point x="179" y="838"/>
      <point x="160" y="832"/>
      <point x="153" y="817" type="curve" smooth="yes"/>
      <point x="53" y="617" type="line" smooth="yes"/>
      <point x="46" y="603"/>
      <point x="52" y="584"/>
    </contour>
  </outline>
</glyph>
